<svg width="24" height="24" viewBox="0 0 24 24" fill="none" xmlns="http://www.w3.org/2000/svg">
<path d="M14.2169 3.49947C13.5241 3.17061 12.7668 3 11.9999 3C11.233 3 10.4757 3.17061 9.78293 3.49947L3.09193 6.63647C2.01593 7.14047 1.73493 8.56347 2.24993 9.54647V14.4995C2.24993 14.6984 2.32895 14.8892 2.4696 15.0298C2.61025 15.1705 2.80102 15.2495 2.99993 15.2495C3.19884 15.2495 3.38961 15.1705 3.53026 15.0298C3.67091 14.8892 3.74993 14.6984 3.74993 14.4995V10.6715L9.78293 13.4995C10.4757 13.8283 11.233 13.9989 11.9999 13.9989C12.7668 13.9989 13.5241 13.8283 14.2169 13.4995L20.9079 10.3625C22.3639 9.68047 22.3639 7.31847 20.9079 6.63647L14.2169 3.49947Z" fill="#F36A26"/>
<path d="M5 12.9141V16.6241C5 17.6321 5.503 18.5761 6.385 19.0641C7.854 19.8791 10.204 20.9991 12 20.9991C13.796 20.9991 16.146 19.8781 17.615 19.0651C18.497 18.5761 19 17.6321 19 16.6251V12.9141L14.854 14.8581C13.9618 15.2804 12.9871 15.4995 12 15.4995C11.0129 15.4995 10.0382 15.2804 9.146 14.8581L5 12.9141Z" fill="#F36A26"/>
</svg>
