<svg width="24" height="24" viewBox="0 0 24 24" fill="none" xmlns="http://www.w3.org/2000/svg">
<path d="M4.616 21C4.15533 21 3.771 20.846 3.463 20.538C3.155 20.23 3.00067 19.8457 3 19.385V8.615C3 8.155 3.15433 7.771 3.463 7.463C3.77167 7.155 4.15567 7.00067 4.615 7H9V5.615C9 5.155 9.15433 4.77067 9.463 4.462C9.77167 4.15334 10.156 3.99934 10.616 4H13.385C13.845 4 14.2293 4.154 14.538 4.462C14.8467 4.77 15.0007 5.15434 15 5.615V7H19.385C19.845 7 20.229 7.15434 20.537 7.463C20.845 7.77167 20.9993 8.156 21 8.616V19.385C21 19.845 20.8457 20.2293 20.537 20.538C20.2283 20.8467 19.8443 21.0007 19.385 21H4.616ZM10 7H14V5.615C14 5.46167 13.936 5.32067 13.808 5.192C13.68 5.06334 13.539 4.99934 13.385 5H10.615C10.4617 5 10.3207 5.064 10.192 5.192C10.0633 5.32 9.99933 5.461 10 5.615V7ZM11.5 14.5V17.5H12.5V14.5H15.5V13.5H12.5V10.5H11.5V13.5H8.5V14.5H11.5Z" fill="#F36A26"/>
</svg>
