<svg width="18" height="18" viewBox="0 0 18 18" fill="none" xmlns="http://www.w3.org/2000/svg">
<g clip-path="url(#clip0_2909_609)">
<path d="M9.9031 1.2196C9.85739 1.07388 9.76637 0.94654 9.6433 0.856111C9.52023 0.765681 9.37151 0.716877 9.21879 0.716797C9.06607 0.716717 8.9173 0.765365 8.79414 0.855666C8.67097 0.945966 8.57982 1.07321 8.53396 1.21888L6.96677 6.18452L2.04347 6.18093C1.88998 6.18057 1.74042 6.22944 1.61676 6.32035C1.49309 6.41127 1.40183 6.53944 1.35639 6.68605C1.31095 6.83266 1.31371 6.98998 1.36427 7.1349C1.41484 7.27982 1.51054 7.40471 1.63732 7.49123L5.58256 10.1908L4.09933 14.8873C4.05458 15.0307 4.05594 15.1845 4.10322 15.327C4.15051 15.4696 4.24134 15.5937 4.36291 15.6819C4.48447 15.7701 4.63065 15.818 4.78085 15.8187C4.93104 15.8194 5.07768 15.773 5.20009 15.686L9.21853 12.8113L13.2327 15.6867C13.3551 15.7744 13.502 15.8214 13.6527 15.8209C13.8033 15.8205 13.9499 15.7727 14.0719 15.6842C14.1938 15.5958 14.2848 15.4713 14.332 15.3282C14.3792 15.1852 14.3802 15.0309 14.3349 14.8873L12.8516 10.1908L16.7997 7.49123C16.9265 7.40471 17.0222 7.27982 17.0728 7.1349C17.1233 6.98998 17.1261 6.83266 17.0807 6.68605C17.0352 6.53944 16.944 6.41127 16.8203 6.32035C16.6966 6.22944 16.5471 6.18057 16.3936 6.18093L11.4667 6.18452L9.9031 1.2196Z" fill="#F3B926"/>
</g>
<defs>
<clipPath id="clip0_2909_609">
<rect width="17.2219" height="17.2219" fill="white" transform="translate(0.609375)"/>
</clipPath>
</defs>
</svg>
