<svg width="20" height="20" viewBox="0 0 20 20" fill="none" xmlns="http://www.w3.org/2000/svg">
<path d="M4.51441 3.41926C5.16615 3.06333 5.77853 2.96458 6.33377 3.12458C6.90933 3.2902 7.33599 3.70177 7.59218 4.01427C6.93695 4.49708 6.53282 5.26645 6.51758 6.10239C6.51599 6.15708 6.52552 6.20552 6.53504 6.25395C6.57441 6.46677 6.70679 6.6302 6.93377 6.72614C6.94647 6.73145 6.9852 6.74333 7.06742 6.74333C7.2925 6.74333 7.56679 6.65426 7.56964 6.65364L11.2042 5.6402C11.4833 5.56051 11.6287 5.41208 11.6455 5.18676L11.6509 5.15083V5.14426C11.6798 4.98114 11.5042 4.7052 11.3522 4.6227C11.1192 4.49426 10.9049 4.37208 10.7049 4.25677C9.96457 3.83239 9.42965 3.5252 8.88806 3.5252C8.82869 3.5252 8.76869 3.53176 8.70838 3.53895C8.39409 3.09458 7.7179 2.31395 6.67885 2.00989C5.80457 1.75395 4.88393 1.88489 3.94076 2.4002C3.57314 2.60114 1.70107 3.52364 0.402344 2.37083V3.76614C2.14393 4.60364 4.08742 3.65177 4.51472 3.41864L4.51441 3.41926Z" fill="#F36A26"/>
<path d="M15.4253 6.13695C14.905 6.01852 13.5485 5.88414 13.5485 5.88414L12.3691 5.42383C12.3006 5.72039 12.0866 6.1607 11.4158 6.35289L7.78056 7.36633C7.66025 7.40352 7.36152 7.48539 7.0685 7.48539C6.91199 7.48539 6.77739 7.46289 6.65771 7.41633C6.32469 7.27602 6.08088 7.0557 5.93358 6.77977C5.57622 7.20891 5.38052 7.74644 5.37961 8.30133L5.38025 9.26102L4.40215 9.26039C3.47866 8.00352 2.0431 7.13539 0.394531 6.96414V18.1126C2.0485 17.9398 3.4885 17.0666 4.41104 15.8029H8.76056C9.34281 16.5331 10.0862 17.1235 10.9343 17.5293C11.7825 17.9351 12.7134 18.1456 13.6564 18.1451C17.0968 18.1445 19.8841 15.401 19.8853 12.0148C19.8853 9.23227 17.7625 6.66977 15.4256 6.13633L15.4253 6.13695ZM12.9129 7.08102C12.9129 6.90008 13.0663 6.76977 13.2298 6.76977C13.4136 6.76977 13.546 6.90008 13.546 7.08102V8.4257C13.546 8.58664 13.4136 8.73758 13.2298 8.73758C13.0663 8.73758 12.9129 8.58664 12.9129 8.4257V7.08102ZM13.8209 12.8063C13.8209 13.8273 12.9802 14.6579 11.9466 14.6579C10.9114 14.6579 10.0691 13.8273 10.0691 12.8063V12.6666H10.7002V12.8063C10.7018 13.482 11.2602 14.0341 11.946 14.036C12.2762 14.0341 12.5924 13.9038 12.8255 13.6735C13.0586 13.4431 13.1897 13.1314 13.1904 12.8063V12.6666H13.8206L13.8209 12.8063Z" fill="#F36A26"/>
</svg>
