<svg width="40" height="40" viewBox="0 0 40 40" fill="none" xmlns="http://www.w3.org/2000/svg">
<path fill-rule="evenodd" clip-rule="evenodd" d="M19.0154 3.36133C20.332 3.47799 21.1037 3.92799 21.572 4.44799C22.1437 5.08299 22.4987 6.08633 22.4987 7.49966C22.4989 7.94188 22.3818 8.37625 22.1594 8.75844C21.9369 9.14064 21.6171 9.45699 21.2324 9.67523C20.8478 9.89346 20.4122 10.0058 19.97 10.0007C19.5278 9.99561 19.0949 9.87334 18.7154 9.64633L18.4987 9.49966C18.3236 9.36834 18.1244 9.27279 17.9123 9.21847C17.7003 9.16415 17.4797 9.15213 17.263 9.18308C17.0463 9.21403 16.8379 9.28736 16.6495 9.39887C16.4612 9.51038 16.2967 9.6579 16.1654 9.833C16.034 10.0081 15.9385 10.2073 15.8842 10.4194C15.8299 10.6314 15.8178 10.852 15.8488 11.0687C15.9113 11.5063 16.1451 11.9011 16.4987 12.1663C17.3654 12.8163 18.3959 13.2121 19.4748 13.3094C20.5538 13.4067 21.6385 13.2016 22.6074 12.7172C23.5764 12.2327 24.3913 11.488 24.9608 10.5664C25.5304 9.6449 25.832 8.58298 25.832 7.49966C25.832 6.35799 25.662 5.21799 25.252 4.17799C31.882 6.378 36.6654 12.6297 36.6654 19.9997C36.6654 29.2047 29.2037 36.6663 19.9987 36.6663C10.7937 36.6663 3.33203 29.2047 3.33203 19.9997C3.33203 11.1247 10.2687 3.87133 19.0154 3.36133ZM24.3987 25.3863C24.0592 25.1036 23.6212 24.9672 23.1812 25.0072C22.7412 25.0472 22.335 25.2603 22.052 25.5997C21.4537 26.3163 20.722 26.6663 19.9987 26.6663C19.2754 26.6663 18.5437 26.3163 17.9454 25.5997C17.6589 25.2722 17.2557 25.0697 16.8219 25.0355C16.3882 25.0014 15.9583 25.1381 15.624 25.4167C15.2897 25.6952 15.0777 26.0934 15.0331 26.5263C14.9885 26.9591 15.1149 27.3922 15.3854 27.733C16.5054 29.078 18.1254 29.9997 19.9987 29.9997C21.872 29.9997 23.492 29.078 24.612 27.733C24.8948 27.3935 25.0312 26.9555 24.9912 26.5155C24.9512 26.0755 24.7381 25.6693 24.3987 25.3863ZM14.1654 16.6663C13.5023 16.6663 12.8664 16.9297 12.3976 17.3986C11.9288 17.8674 11.6654 18.5033 11.6654 19.1663C11.6654 19.8294 11.9288 20.4653 12.3976 20.9341C12.8664 21.4029 13.5023 21.6663 14.1654 21.6663C14.8284 21.6663 15.4643 21.4029 15.9331 20.9341C16.402 20.4653 16.6654 19.8294 16.6654 19.1663C16.6654 18.5033 16.402 17.8674 15.9331 17.3986C15.4643 16.9297 14.8284 16.6663 14.1654 16.6663ZM25.832 16.6663C25.169 16.6663 24.5331 16.9297 24.0643 17.3986C23.5954 17.8674 23.332 18.5033 23.332 19.1663C23.332 19.8294 23.5954 20.4653 24.0643 20.9341C24.5331 21.4029 25.169 21.6663 25.832 21.6663C26.4951 21.6663 27.131 21.4029 27.5998 20.9341C28.0686 20.4653 28.332 19.8294 28.332 19.1663C28.332 18.5033 28.0686 17.8674 27.5998 17.3986C27.131 16.9297 26.4951 16.6663 25.832 16.6663Z" fill="#F36A26"/>
</svg>
