<svg width="24" height="24" viewBox="0 0 24 24" fill="none" xmlns="http://www.w3.org/2000/svg">
<path fill-rule="evenodd" clip-rule="evenodd" d="M11.9998 5.37522C11.9998 4.91922 12.0638 4.47722 12.1833 4.05672C14.1453 6.94122 15.4563 8.59172 18.9463 10.3212C18.4863 10.4377 18.0013 10.5002 17.4998 10.5002C14.4313 10.5002 11.9998 8.17572 11.9998 5.37522ZM10.9998 5.37522C10.9994 4.74148 11.103 4.11197 11.3063 3.51172C10.0213 3.57172 8.75827 3.86722 7.58877 4.38422C6.55772 4.79466 5.64681 5.45845 4.94027 6.31422C4.30898 7.19454 3.95597 8.24383 3.92677 9.32672C3.92077 9.57422 3.92427 9.80872 3.92777 10.0357C3.93927 10.8362 3.94977 11.5417 3.54727 12.3762C3.54727 12.3762 2.35727 13.4467 2.51427 14.3062C2.67077 15.1652 4.22077 15.4012 4.22077 15.4012C4.22077 18.8722 7.53527 18.6512 9.18977 18.3252L9.28777 18.3052C9.78277 18.2022 10.1063 18.0962 10.1063 18.0962V18.7482C10.1063 18.7482 10.1408 18.8582 10.2468 19.0117C10.2748 19.0527 10.3084 19.0962 10.3478 19.1422C10.6578 19.5072 11.3328 19.9937 12.7218 19.9937C13.7688 20.0762 15.5608 19.3912 16.0358 18.4247V15.4697C17.4423 14.4177 18.5778 13.0597 18.9048 11.3567C18.4425 11.4518 17.9717 11.4999 17.4998 11.5002C13.9408 11.5002 10.9998 8.78772 10.9998 5.37522ZM20.0658 18.5002V15.0002C20.0658 14.735 20.1711 14.4806 20.3587 14.2931C20.5462 14.1056 20.8006 14.0002 21.0658 14.0002C21.6183 14.0002 22.0753 14.4512 21.9893 14.9972C21.6228 17.3322 20.0658 18.5002 20.0658 18.5002ZM20.8158 13.5002C21.0147 13.5002 21.2055 13.4212 21.3461 13.2805C21.4868 13.1399 21.5658 12.9491 21.5658 12.7502V11.7072L20.1598 13.1137C20.2247 13.2308 20.3197 13.3284 20.4351 13.3964C20.5504 13.4644 20.6819 13.5002 20.8158 13.5002ZM20.0658 10.7072V11.7932L21.5658 10.2932V9.20722L20.0658 10.7072ZM20.0658 5.75022V9.29322L21.5658 7.79322V5.75022C21.5658 5.55131 21.4868 5.36054 21.3461 5.21989C21.2055 5.07924 21.0147 5.00022 20.8158 5.00022C20.6169 5.00022 20.4261 5.07924 20.2854 5.21989C20.1448 5.36054 20.0658 5.55131 20.0658 5.75022Z" fill="#F36A26"/>
</svg>
