<svg width="24" height="24" viewBox="0 0 24 24" fill="none" xmlns="http://www.w3.org/2000/svg">
<path fill-rule="evenodd" clip-rule="evenodd" d="M3 4C3 3.73478 3.10536 3.48043 3.29289 3.29289C3.48043 3.10536 3.73478 3 4 3H18.037L13.85 7.145L13.8525 7.1475L6 15H10.776C11.5606 14.9999 12.3139 14.6924 12.8745 14.1435L14.6995 12.3565C14.7946 12.2634 14.8702 12.1522 14.9218 12.0295C14.9734 11.9069 15 11.7751 15 11.642V11.414C15.0001 11.1488 15.1055 10.8945 15.293 10.707L16.35 9.65L16.3535 9.6535L19.1035 6.9035C19.1973 6.80975 19.2501 6.68256 19.2501 6.54993C19.2501 6.41729 19.1975 6.29007 19.1038 6.19625C19.01 6.10243 18.8828 6.0497 18.7502 6.04965C18.6175 6.0496 18.4903 6.10225 18.3965 6.196L16.1555 8.437L14.847 7.565L19.4585 3H20C20.2652 3 20.5196 3.10536 20.7071 3.29289C20.8946 3.48043 21 3.73478 21 4V20C21 20.2652 20.8946 20.5196 20.7071 20.7071C20.5196 20.8946 20.2652 21 20 21H4C3.73478 21 3.48043 20.8946 3.29289 20.7071C3.10536 20.5196 3 20.2652 3 20V4ZM8.414 14H10.776C11.2991 13.9999 11.8013 13.795 12.175 13.429L14 11.642V11.414C14.0001 10.8836 14.2109 10.375 14.586 10L15.4305 9.155L14.1275 8.287L8.414 14ZM13.354 11.3535C13.4478 11.2597 13.5004 11.1325 13.5004 10.9998C13.5003 10.8672 13.4476 10.74 13.3538 10.6462C13.2599 10.5525 13.1327 10.4999 13.0001 10.4999C12.8674 10.4999 12.7403 10.5527 12.6465 10.6465L11.1465 12.1465C11.0554 12.2408 11.005 12.3671 11.0062 12.4982C11.0073 12.6293 11.0599 12.7547 11.1526 12.8474C11.2453 12.9401 11.3707 12.9927 11.5018 12.9938C11.6329 12.995 11.7592 12.9446 11.8535 12.8535L13.354 11.3535ZM10.8865 17.2785C10.9211 17.2227 10.9664 17.1742 11.0198 17.1359C11.0731 17.0976 11.1335 17.0702 11.1975 17.0552C11.2614 17.0403 11.3277 17.038 11.3925 17.0487C11.4574 17.0593 11.5194 17.0826 11.5752 17.1173C11.6311 17.1519 11.6795 17.1972 11.7178 17.2505C11.7561 17.3039 11.7835 17.3643 11.7985 17.4282C11.8135 17.4922 11.8157 17.5585 11.8051 17.6233C11.7944 17.6881 11.7711 17.7502 11.7365 17.806C11.6665 17.9187 11.5546 17.999 11.4253 18.0292C11.2961 18.0594 11.1602 18.037 11.0475 17.967C10.9348 17.897 10.8545 17.7851 10.8243 17.6558C10.7941 17.5266 10.8165 17.3912 10.8865 17.2785ZM14.3865 17.778C14.4279 17.7115 14.4843 17.6557 14.5512 17.615C14.6181 17.5743 14.6937 17.5499 14.7717 17.5437C14.8498 17.5376 14.9282 17.5498 15.0007 17.5796C15.0732 17.6093 15.1376 17.6556 15.1889 17.7148C15.2402 17.774 15.2769 17.8444 15.2959 17.9203C15.315 17.9963 15.316 18.0757 15.2988 18.1521C15.2816 18.2285 15.2467 18.2998 15.1968 18.3602C15.147 18.4206 15.0837 18.4685 15.012 18.5H19V19.5H5V18.5H6.611C6.50581 18.454 6.41968 18.3731 6.36707 18.271C6.31446 18.169 6.29858 18.0519 6.3221 17.9395C6.34562 17.8272 6.40711 17.7263 6.49623 17.6539C6.58535 17.5815 6.69668 17.542 6.8115 17.542C6.92632 17.542 7.03765 17.5815 7.12677 17.6539C7.21589 17.7263 7.27738 17.8272 7.3009 17.9395C7.32442 18.0519 7.30854 18.169 7.25593 18.271C7.20332 18.3731 7.11719 18.454 7.012 18.5H14.611C14.5453 18.4712 14.4866 18.4287 14.4388 18.3752C14.391 18.3218 14.3553 18.2587 14.3341 18.1902C14.3128 18.1217 14.3066 18.0494 14.3157 17.9783C14.3248 17.9072 14.3486 17.8389 14.3865 17.778ZM14.8135 16H19V17H5V16H13.3995L17.0435 12.356L17.7505 13.063L14.8135 16Z" fill="#F36A26"/>
</svg>
