<svg width="18" height="18" viewBox="0 0 18 18" fill="none" xmlns="http://www.w3.org/2000/svg">
<g clip-path="url(#clip0_3162_25)">
<path d="M0.895933 1.21128C0.888607 1.19806 0.883974 1.18351 0.8823 1.16849C0.880626 1.15346 0.881945 1.13825 0.886181 1.12374C0.890418 1.10923 0.897487 1.0957 0.906981 1.08393C0.916475 1.07217 0.928206 1.0624 0.941496 1.05519L1.77681 0.600129C1.79005 0.59283 1.8046 0.588233 1.81963 0.586603C1.83466 0.584973 1.84986 0.586344 1.86435 0.590634C1.87885 0.594925 1.89234 0.602051 1.90406 0.611598C1.91578 0.621146 1.92549 0.632926 1.93262 0.646254L2.26759 1.25741C3.53406 0.877722 4.93721 1.41772 5.59618 2.62457L3.97759 3.50825C4.10615 3.744 4.13579 4.02116 4.06 4.27877C3.9842 4.53637 3.80918 4.75332 3.57343 4.88188C3.33768 5.01044 3.06052 5.04008 2.80292 4.96429C2.54531 4.88849 2.32837 4.71347 2.19981 4.47772L0.580652 5.36028C-0.0788791 4.154 0.224027 2.68194 1.23034 1.82272L0.895933 1.21128ZM12.2998 12.22H17.7473V17.8512H12.2998V12.22ZM11.6754 15.0344H7.27581C6.90709 15.0344 6.55348 14.8879 6.29266 14.6273C6.03183 14.3667 5.88512 14.0132 5.88475 13.6445C5.88497 13.2758 6.03164 12.9222 6.29251 12.6616C6.55338 12.401 6.90707 12.2547 7.27581 12.2548H11.6754V15.0344ZM2.18968 16.162C2.18968 15.8512 2.4414 15.5989 2.75246 15.5989H11.6751V17.8506H2.18968V16.1617V16.162ZM5.57312 13.3565C5.57297 13.577 5.52939 13.7954 5.44485 13.999C5.36032 14.2027 5.23649 14.3877 5.08044 14.5436C4.92439 14.6994 4.73918 14.8229 4.53537 14.9071C4.33157 14.9914 4.11317 15.0346 3.89265 15.0344C3.67211 15.0347 3.45368 14.9914 3.24984 14.9072C3.04601 14.823 2.86076 14.6995 2.70468 14.5437C2.5486 14.3878 2.42475 14.2028 2.3402 13.9991C2.25564 13.7954 2.21205 13.577 2.2119 13.3565C2.2119 12.4303 2.96425 11.6794 3.89265 11.6794C4.8205 11.6794 5.57312 12.4303 5.57312 13.3565ZM14.7587 8.65766L13.8135 5.96638C13.6301 5.459 13.278 5.063 12.284 5.063H7.92015C6.9265 5.063 6.57381 5.459 6.39128 5.96638L5.44628 8.65766C5.37568 8.83147 5.33912 9.22213 5.72359 9.48369L7.94575 10.9479C8.10157 11.0506 8.29178 11.0874 8.47467 11.0501C8.65756 11.0128 8.81821 10.9046 8.9214 10.749C8.9723 10.6718 9.00749 10.5854 9.02495 10.4945C9.04242 10.4037 9.04183 10.3104 9.0232 10.2198C9.00458 10.1292 8.9683 10.0432 8.91642 9.96665C8.86455 9.8901 8.7981 9.82452 8.72087 9.77366L6.95715 8.61125L7.45356 7.24185H8.14065L7.73818 8.35278L9.07721 9.23535C9.22541 9.33245 9.35285 9.45799 9.45216 9.60471C9.55147 9.75143 9.62067 9.9164 9.65575 10.0901C9.69215 10.2637 9.69369 10.4428 9.66028 10.617C9.62686 10.7912 9.55917 10.957 9.46112 11.1048C9.3826 11.2221 9.28618 11.3263 9.17537 11.4136H11.0294C10.9188 11.3259 10.8223 11.2218 10.7433 11.1048C10.6453 10.957 10.5776 10.7912 10.5441 10.617C10.5106 10.4428 10.512 10.2637 10.5482 10.0901C10.5834 9.91644 10.6527 9.75151 10.7521 9.60481C10.8514 9.45811 10.9788 9.33254 11.127 9.23535L12.4668 8.35278L12.0627 7.24185H12.7503L13.2479 8.61125L11.4833 9.77366C11.159 9.98741 11.0685 10.4253 11.2831 10.749C11.4977 11.0728 11.9347 11.1622 12.259 10.9479L14.4809 9.48369C14.8656 9.22185 14.8291 8.83147 14.7587 8.65766ZM10.5363 2.4291C10.4833 2.54438 10.3983 2.64202 10.2914 2.71046C10.1845 2.7789 10.0603 2.81527 9.93334 2.81525C9.80627 2.8152 9.68186 2.77881 9.57477 2.7104C9.46769 2.64198 9.38239 2.54438 9.32893 2.4291H8.11168C8.092 2.53597 8.08046 2.64538 8.08046 2.75816C8.08099 3.25092 8.27712 3.72332 8.62577 4.07154C8.97441 4.41977 9.44705 4.61533 9.93981 4.61525C10.1839 4.61544 10.4256 4.56755 10.6511 4.47432C10.8766 4.38109 11.0816 4.24434 11.2543 4.07189C11.427 3.89944 11.564 3.69466 11.6575 3.46925C11.7511 3.24384 11.7993 3.00221 11.7994 2.75816C11.7994 2.6451 11.7873 2.53597 11.7685 2.4291H10.5363ZM9.28787 1.99063C9.32426 1.84699 9.40747 1.71956 9.52436 1.6285C9.64126 1.53743 9.78516 1.48791 9.93334 1.48775C10.2444 1.48775 10.5068 1.70263 10.5777 1.99063H11.6324C11.4847 1.66563 11.2466 1.39001 10.9465 1.1967C10.6465 1.00339 10.2971 0.900562 9.94009 0.900503C9.58313 0.900562 9.23373 1.00339 8.93364 1.1967C8.63355 1.39001 8.39545 1.66563 8.24781 1.99063H9.28787Z" fill="#F36A26"/>
</g>
<defs>
<clipPath id="clip0_3162_25">
<rect width="18" height="18" fill="white"/>
</clipPath>
</defs>
</svg>
