<svg width="40" height="40" viewBox="0 0 40 40" fill="none" xmlns="http://www.w3.org/2000/svg">
<path d="M13.332 23.3327C13.332 24.6588 12.8052 25.9305 11.8676 26.8682C10.9299 27.8059 9.65811 28.3327 8.33203 28.3327C7.00595 28.3327 5.73418 27.8059 4.7965 26.8682C3.85882 25.9305 3.33203 24.6588 3.33203 23.3327C3.33203 22.0493 3.81536 20.8827 4.5987 19.9993C3.81536 19.116 3.33203 17.9493 3.33203 16.666C3.33203 15.3399 3.85882 14.0682 4.7965 13.1305C5.73418 12.1928 7.00595 11.666 8.33203 11.666C9.65811 11.666 10.9299 12.1928 11.8676 13.1305C12.8052 14.0682 13.332 15.3399 13.332 16.666C15.5487 16.7993 17.782 16.9493 19.9987 16.9493C22.2154 16.9493 24.4487 16.7993 26.6654 16.666C26.6654 15.3399 27.1921 14.0682 28.1298 13.1305C29.0675 12.1928 30.3393 11.666 31.6654 11.666C32.9914 11.666 34.2632 12.1928 35.2009 13.1305C36.1386 14.0682 36.6654 15.3399 36.6654 16.666C36.6654 17.9493 36.182 19.116 35.3987 19.9993C36.182 20.8827 36.6654 22.0493 36.6654 23.3327C36.6654 24.6588 36.1386 25.9305 35.2009 26.8682C34.2632 27.8059 32.9914 28.3327 31.6654 28.3327C30.3393 28.3327 29.0675 27.8059 28.1298 26.8682C27.1921 25.9305 26.6654 24.6588 26.6654 23.3327C24.4487 23.1993 22.2154 23.0493 19.9987 23.0493C17.782 23.0493 15.5487 23.1993 13.332 23.3327Z" fill="#F36A26"/>
</svg>
