<svg width="17" height="17" viewBox="0 0 17 17" fill="none" xmlns="http://www.w3.org/2000/svg">
<path d="M3.22656 12.5235C3.22656 13.4612 3.94363 14.1783 4.88134 14.1783H12.6036C13.5413 14.1783 14.2584 13.4612 14.2584 12.5235V8.1108H3.22656V12.5235ZM12.6036 4.24967H11.5004V3.69808C11.5004 3.36712 11.2798 3.14648 10.9488 3.14648C10.6179 3.14648 10.3972 3.36712 10.3972 3.69808V4.24967H7.0877V3.69808C7.0877 3.36712 6.86706 3.14648 6.53611 3.14648C6.20515 3.14648 5.98452 3.36712 5.98452 3.69808V4.24967H4.88134C3.94363 4.24967 3.22656 4.96673 3.22656 5.90444V7.00762H14.2584V5.90444C14.2584 4.96673 13.5413 4.24967 12.6036 4.24967Z" fill="#F36A26"/>
</svg>
