<svg width="40" height="40" viewBox="0 0 40 40" fill="none" xmlns="http://www.w3.org/2000/svg">
<path d="M18.09 23.1627L15.8067 19.756C15.6689 19.576 15.5067 19.4327 15.32 19.326C15.1333 19.2193 14.9233 19.166 14.69 19.166H7.21668C6.97446 19.166 6.75501 19.1077 6.55834 18.991C6.36168 18.8743 6.20834 18.706 6.09834 18.486C5.69612 17.7016 5.41223 16.9671 5.24668 16.2827C5.08112 15.5982 4.9989 14.8927 5.00001 14.166C5.00001 12.046 5.72001 10.266 7.16001 8.82602C8.60001 7.38602 10.38 6.66602 12.5 6.66602C13.9667 6.66602 15.3417 7.04102 16.625 7.79102C17.9083 8.54102 19.0333 9.63213 20 11.0643C20.9667 9.63213 22.0917 8.54102 23.375 7.79102C24.6583 7.04102 26.0333 6.66602 27.5 6.66602C29.62 6.66602 31.4 7.38602 32.84 8.82602C34.28 10.266 35 12.046 35 14.166C35 14.8927 34.9172 15.5982 34.7517 16.2827C34.5861 16.9682 34.3028 17.7027 33.9017 18.486C33.7961 18.706 33.6433 18.8743 33.4433 18.991C33.2433 19.1077 33.0228 19.166 32.7817 19.166H25.4133L22.3467 14.5643C22.2656 14.4421 22.1572 14.3505 22.0217 14.2893C21.8861 14.2282 21.74 14.1977 21.5833 14.1977C21.4145 14.1977 21.2678 14.2482 21.1433 14.3493C21.0178 14.4516 20.9317 14.5838 20.885 14.746L18.09 23.1627ZM20 32.406C19.6756 32.406 19.3561 32.3477 19.0417 32.231C18.7272 32.1143 18.4495 31.9349 18.2083 31.6927C16.3239 29.9782 14.5161 28.3027 12.785 26.666C11.055 25.0305 9.51668 23.3543 8.17001 21.6377C8.02557 21.4799 8.00501 21.306 8.10834 21.116C8.21168 20.926 8.36723 20.831 8.57501 20.831H14.5233L17.6217 25.4643C17.7028 25.6088 17.8167 25.706 17.9633 25.756C18.11 25.806 18.2611 25.831 18.4167 25.831C18.5856 25.831 18.7272 25.7805 18.8417 25.6793C18.9561 25.5771 19.0472 25.4449 19.115 25.2827L21.91 16.8877L24.1383 20.241C24.2772 20.421 24.4395 20.5643 24.625 20.671C24.8106 20.7777 25.0211 20.831 25.2567 20.831H31.4583C31.6661 20.831 31.8161 20.926 31.9083 21.116C32.0006 21.306 31.9745 21.4805 31.83 21.6393C30.4845 23.3549 28.9456 25.0305 27.2133 26.666C25.4833 28.3016 23.6761 29.9766 21.7917 31.691C21.5506 31.9321 21.2728 32.1116 20.9583 32.2293C20.6439 32.3471 20.3245 32.4071 20 32.406Z" fill="#F36A26"/>
</svg>
