<svg width="40" height="40" viewBox="0 0 40 40" fill="none" xmlns="http://www.w3.org/2000/svg">
<path d="M28.3333 3.54102C30.1667 3.54102 31.7361 4.19379 33.0417 5.49935C34.3472 6.8049 35 8.37435 35 10.2077C35 10.5132 34.9789 10.9232 34.9367 11.4377C34.8944 11.9521 34.8322 12.5421 34.75 13.2077L32.4583 29.9993C32.3194 31.0549 31.8406 31.916 31.0217 32.5827C30.2028 33.2493 29.265 33.5827 28.2083 33.5827C27.5694 33.5827 26.9794 33.4438 26.4383 33.166C25.8972 32.8882 25.4456 32.4993 25.0833 31.9993L20.625 25.4993C20.5694 25.3882 20.4794 25.3121 20.355 25.271C20.2306 25.2299 20.0983 25.2088 19.9583 25.2077C19.8472 25.2077 19.625 25.3327 19.2917 25.5827L14.9583 31.8743C14.5694 32.4299 14.0906 32.8538 13.5217 33.146C12.9528 33.4382 12.3483 33.5838 11.7083 33.5827C10.6528 33.5827 9.72222 33.2427 8.91667 32.5627C8.11111 31.8827 7.63889 31.0143 7.5 29.9577L5.25 13.2077C5.16667 12.541 5.10444 11.951 5.06333 11.4377C5.02222 10.9243 5.00111 10.5143 5 10.2077C5 8.37435 5.65278 6.8049 6.95833 5.49935C8.26389 4.19379 9.83333 3.54102 11.6667 3.54102C12.6667 3.54102 13.4656 3.67324 14.0633 3.93768C14.6611 4.20213 15.2372 4.48657 15.7917 4.79102C16.3461 5.09546 16.9367 5.38046 17.5633 5.64602C18.19 5.91157 19.0022 6.04324 20 6.04102C20.9978 6.03879 21.8106 5.90657 22.4383 5.64435C23.0661 5.38213 23.6561 5.09768 24.2083 4.79102C24.7606 4.48435 25.3439 4.19935 25.9583 3.93602C26.5728 3.67268 27.3644 3.54102 28.3333 3.54102Z" fill="#F36A26"/>
</svg>
