<svg width="40" height="40" viewBox="0 0 40 40" fill="none" xmlns="http://www.w3.org/2000/svg">
<path d="M3.33203 34.9997V19.9997C3.33203 19.083 3.6587 18.2986 4.31203 17.6464C4.96536 16.9941 5.74981 16.6675 6.66536 16.6664H14.9987V19.9997C14.9987 21.3886 15.4848 22.5691 16.457 23.5414C17.4293 24.5136 18.6098 24.9997 19.9987 24.9997C21.3876 24.9997 22.5681 24.5136 23.5404 23.5414C24.5126 22.5691 24.9987 21.3886 24.9987 19.9997V16.6664H33.332C34.2487 16.6664 35.0337 16.993 35.687 17.6464C36.3404 18.2997 36.6665 19.0841 36.6654 19.9997V34.9997H3.33203ZM19.9987 21.6664C19.5265 21.6664 19.1309 21.5064 18.812 21.1864C18.4931 20.8664 18.3331 20.4708 18.332 19.9997C18.332 16.9719 18.6793 13.9858 19.3737 11.0413C20.0681 8.09691 21.582 5.66635 23.9154 3.74968C24.2765 3.44413 24.6793 3.31191 25.1237 3.35302C25.5681 3.39413 25.9431 3.59579 26.2487 3.95802C26.5543 4.32024 26.6865 4.72302 26.6454 5.16635C26.6043 5.60968 26.4026 5.98468 26.0404 6.29135C24.0959 7.93024 22.8809 9.98579 22.3954 12.458C21.9098 14.9302 21.6665 17.4441 21.6654 19.9997C21.6654 20.4719 21.5054 20.868 21.1854 21.188C20.8654 21.508 20.4698 21.6675 19.9987 21.6664ZM9.58203 25.833C9.94314 25.833 10.242 25.7147 10.4787 25.478C10.7154 25.2413 10.8331 24.943 10.832 24.583C10.8309 24.223 10.7126 23.9247 10.477 23.688C10.2415 23.4514 9.94314 23.333 9.58203 23.333C9.22092 23.333 8.92259 23.4514 8.68703 23.688C8.45148 23.9247 8.33314 24.223 8.33203 24.583C8.33092 24.943 8.44925 25.2419 8.68703 25.4797C8.92481 25.7175 9.22314 25.8352 9.58203 25.833ZM11.2487 29.9997C11.6098 29.9997 11.9087 29.8814 12.1454 29.6447C12.382 29.408 12.4998 29.1097 12.4987 28.7497C12.4976 28.3897 12.3793 28.0913 12.1437 27.8547C11.9081 27.618 11.6098 27.4997 11.2487 27.4997C10.8876 27.4997 10.5893 27.618 10.3537 27.8547C10.1181 28.0913 9.99981 28.3897 9.9987 28.7497C9.99759 29.1097 10.1159 29.4086 10.3537 29.6464C10.5915 29.8841 10.8898 30.0019 11.2487 29.9997ZM30.4154 25.833C30.7765 25.833 31.0754 25.7147 31.312 25.478C31.5487 25.2413 31.6665 24.943 31.6654 24.583C31.6643 24.223 31.5459 23.9247 31.3104 23.688C31.0748 23.4514 30.7765 23.333 30.4154 23.333C30.0543 23.333 29.7559 23.4514 29.5204 23.688C29.2848 23.9247 29.1665 24.223 29.1654 24.583C29.1643 24.943 29.2826 25.2419 29.5204 25.4797C29.7581 25.7175 30.0565 25.8352 30.4154 25.833Z" fill="#F36A26"/>
</svg>
