<svg width="24" height="24" viewBox="0 0 24 24" fill="none" xmlns="http://www.w3.org/2000/svg">
<path d="M16 17H9.375C8.99167 17 8.67933 17.1167 8.438 17.35C8.19667 17.5833 8.05067 17.85 8 18.15C7.94933 18.45 7.99533 18.7417 8.138 19.025C8.28067 19.3083 8.53467 19.5167 8.9 19.65L14.625 21.925C14.7917 21.9917 14.9543 22.0127 15.113 21.988C15.2717 21.9633 15.4173 21.909 15.55 21.825C15.6827 21.741 15.791 21.6287 15.875 21.488C15.959 21.3473 16.0007 21.1847 16 21V17ZM10 2C11.1 2 12.0417 2.39167 12.825 3.175C13.6083 3.95833 14 4.9 14 6C14 7.1 13.6083 8.04167 12.825 8.825C12.0417 9.60833 11.1 10 10 10C8.9 10 7.95833 9.60833 7.175 8.825C6.39167 8.04167 6 7.1 6 6C6 4.9 6.39167 3.95833 7.175 3.175C7.95833 2.39167 8.9 2 10 2ZM19.225 11C19.7083 11 20.125 11.1623 20.475 11.487C20.825 11.8117 21 12.216 21 12.7C21 13.0833 20.8917 13.4333 20.675 13.75C20.4583 14.0667 20.1667 14.2917 19.8 14.425L18 15H9.375C8.425 15 7.625 15.325 6.975 15.975C6.325 16.625 6 17.425 6 18.375C6 18.675 6.04167 18.9627 6.125 19.238C6.20833 19.5133 6.31667 19.7673 6.45 20H3V16C3 14.6167 3.48767 13.4377 4.463 12.463C5.43833 11.4883 6.61733 11.0007 8 11H19.225Z" fill="#F36A26"/>
</svg>
