<svg width="20" height="20" viewBox="0 0 20 20" fill="none" xmlns="http://www.w3.org/2000/svg">
<g clip-path="url(#clip0_3167_55)">
<path d="M17.3975 0.130859H2.84344C1.41781 0.130859 0.257812 1.29086 0.257812 2.71773V17.2702C0.257812 18.6968 1.41813 19.8571 2.84344 19.8571H17.3975C18.8234 19.8571 19.9841 18.6968 19.9841 17.2702V2.71773C19.9841 1.29117 18.8234 0.130859 17.3975 0.130859ZM14.8053 4.40055C13.0978 4.56586 12.9987 2.61742 12.9987 2.61742C14.9978 2.77273 14.8053 4.40055 14.8053 4.40055ZM6.26281 6.36555C6.52375 7.38336 5.80094 8.2293 4.86187 8.2993C4.82719 7.11023 5.47344 6.66086 6.26281 6.36555ZM6.26281 8.19898C6.52375 9.21586 5.80094 10.0621 4.86187 10.1318C4.82719 8.94336 5.47344 8.49367 6.26281 8.19898ZM6.26281 10.0321C6.52375 11.0487 5.80094 11.8952 4.86187 11.9643C4.82719 10.7759 5.47344 10.3274 6.26281 10.0321ZM4.05469 4.80305C4.66406 5.38648 5.08094 6.05617 4.57812 7.13336C3.74375 6.69773 3.41469 5.63461 4.05469 4.80305ZM2.99906 6.84398C3.78781 7.13992 4.43469 7.58961 4.39938 8.77836C3.46031 8.70773 2.73687 7.86211 2.99906 6.84398ZM2.99906 8.67773C3.78781 8.97242 4.43469 9.42211 4.39938 10.6105C3.46031 10.5412 2.73687 9.69461 2.99906 8.67773ZM2.99906 10.5105C3.78781 10.8065 4.43469 11.2543 4.39938 12.4434C3.46031 12.3743 2.73687 11.5277 2.99906 10.5105ZM6.93313 17.7449L10.1209 12.2218L13.3081 17.7449H6.93313ZM3.46875 13.9824L3.26687 13.2409L16.7734 9.56617L16.9741 10.3084L3.46875 13.9824ZM17.1584 7.76461C17.1584 7.76461 16.6816 8.66148 16.3141 9.06273C16.1344 9.24211 15.8678 9.36992 15.5953 9.36992C15.4371 9.37043 15.2811 9.33291 15.1404 9.26052C14.9997 9.18814 14.8785 9.08301 14.7869 8.95398C14.6952 9.0831 14.5739 9.18828 14.4331 9.26067C14.2923 9.33306 14.1361 9.37053 13.9778 9.36992C13.7056 9.36992 13.4391 9.24211 13.2594 9.06273C12.8916 8.66148 12.415 7.76461 12.415 7.76461C12.1478 7.22211 12.0047 6.80242 12.0047 6.37805C12.0047 5.4743 12.7362 4.69023 13.6422 4.69023C14.0884 4.69023 14.4916 4.86898 14.7872 5.15805C15.0926 4.85792 15.5037 4.6899 15.9319 4.69023C16.8378 4.69023 17.5694 5.4743 17.5694 6.37805C17.5691 6.80242 17.4256 7.22211 17.1584 7.76461Z" fill="#F36A26"/>
<path d="M8.19922 17.0134H12.0414L10.1205 13.6855L8.19922 17.0134Z" fill="#F36A26"/>
</g>
<defs>
<clipPath id="clip0_3167_55">
<rect width="20" height="20" fill="white"/>
</clipPath>
</defs>
</svg>
