<svg width="40" height="40" viewBox="0 0 40 40" fill="none" xmlns="http://www.w3.org/2000/svg">
<path d="M13.2513 30.3333C13.2513 29.6944 13.3419 29.0628 13.523 28.4383C13.7041 27.8139 13.9885 27.2233 14.3763 26.6667C14.5985 26.3611 14.7652 26.035 14.8763 25.6883C14.9874 25.3417 15.043 24.9733 15.043 24.5833C15.043 24.1389 14.9596 23.7222 14.793 23.3333L14.293 22.1667C14.0152 21.6389 13.7857 21.0972 13.6046 20.5417C13.4235 19.9861 13.3335 19.4167 13.3346 18.8333V12.5C13.3346 11.8056 13.0919 11.2156 12.6063 10.73C12.1207 10.2444 11.5302 10.0011 10.8346 10C10.2513 10 9.73741 10.1944 9.29297 10.5833C8.84852 10.9722 8.55686 11.4444 8.41797 12C9.36241 12.3611 10.1402 12.965 10.7513 13.8117C11.3624 14.6583 11.668 15.61 11.668 16.6667C11.668 18.0556 11.1819 19.2361 10.2096 20.2083C9.23741 21.1806 8.05686 21.6667 6.66797 21.6667C5.27908 21.6667 4.09852 21.1806 3.1263 20.2083C2.15408 19.2361 1.66797 18.0556 1.66797 16.6667C1.66797 15.5556 1.98741 14.5694 2.6263 13.7083C3.26519 12.8472 4.08464 12.25 5.08464 11.9167C5.22352 10.4167 5.84186 9.16667 6.93964 8.16667C8.03741 7.16667 9.33575 6.66667 10.8346 6.66667C11.0291 6.66667 11.2235 6.67333 11.418 6.68667C11.6124 6.7 11.8069 6.735 12.0013 6.79167C13.2235 6.15278 14.508 5.69444 15.8546 5.41667C17.2013 5.13889 18.5835 5 20.0013 5C21.3902 5 22.7585 5.13889 24.1063 5.41667C25.4541 5.69444 26.7385 6.15278 27.9596 6.79167C28.1541 6.73611 28.3485 6.70111 28.543 6.68667C28.7374 6.67222 28.9319 6.66556 29.1263 6.66667C30.6541 6.66667 31.9669 7.16667 33.0646 8.16667C34.1624 9.16667 34.7802 10.4167 34.918 11.9167C35.918 12.25 36.7374 12.8472 37.3763 13.7083C38.0152 14.5694 38.3346 15.5556 38.3346 16.6667C38.3346 18.0556 37.8485 19.2361 36.8763 20.2083C35.9041 21.1806 34.7235 21.6667 33.3346 21.6667C31.9457 21.6667 30.7652 21.1806 29.793 20.2083C28.8207 19.2361 28.3346 18.0556 28.3346 16.6667C28.3346 15.6111 28.6402 14.6594 29.2513 13.8117C29.8624 12.9639 30.6402 12.36 31.5846 12C31.4457 11.4444 31.1541 10.9722 30.7096 10.5833C30.2652 10.1944 29.7374 10 29.1263 10C28.4319 10 27.8485 10.2433 27.3763 10.73C26.9041 11.2167 26.668 11.8067 26.668 12.5V18.8333C26.668 19.4167 26.5707 19.9861 26.3763 20.5417C26.1819 21.0972 25.9596 21.6389 25.7096 22.1667C25.5152 22.5556 25.3413 22.9444 25.188 23.3333C25.0346 23.7222 24.9585 24.1389 24.9596 24.5833C24.9596 24.9722 25.0152 25.3406 25.1263 25.6883C25.2374 26.0361 25.4041 26.3622 25.6263 26.6667C25.9874 27.2222 26.2652 27.8128 26.4596 28.4383C26.6541 29.0639 26.7513 29.6956 26.7513 30.3333C26.7513 30.8611 26.6891 31.375 26.5646 31.875C26.4402 32.375 26.2663 32.8611 26.043 33.3333L25.5846 34.25C25.3624 34.8333 24.9319 35.1739 24.293 35.2717L23.3346 35.4167C22.9457 35.0278 22.668 34.6039 22.5013 34.145C22.3346 33.6861 22.3624 33.2211 22.5846 32.75L23.043 31.8333C23.1819 31.6111 23.2791 31.375 23.3346 31.125C23.3902 30.875 23.418 30.6111 23.418 30.3333C23.418 30 23.3624 29.6806 23.2513 29.375C23.1402 29.0694 23.0013 28.7778 22.8346 28.5C22.4457 27.9444 22.1474 27.3333 21.9396 26.6667C21.7319 26 21.6274 25.3194 21.6263 24.625C21.6263 23.9861 21.7169 23.3817 21.898 22.8117C22.0791 22.2417 22.3219 21.6794 22.6263 21.125C22.793 20.7361 22.953 20.3544 23.1063 19.98C23.2596 19.6056 23.3357 19.2233 23.3346 18.8333V12.5C23.3346 11.8333 23.4391 11.2017 23.648 10.605C23.8569 10.0083 24.1552 9.45944 24.543 8.95833C23.8207 8.73611 23.078 8.57611 22.3146 8.47833C21.5513 8.38056 20.7802 8.33222 20.0013 8.33333C19.2224 8.33444 18.4513 8.38333 17.688 8.48C16.9246 8.57667 16.1819 8.73611 15.4596 8.95833C15.8485 9.45833 16.1474 10.0072 16.3563 10.605C16.5652 11.2028 16.6691 11.8344 16.668 12.5V18.8333C16.668 19.2222 16.7374 19.6111 16.8763 20C17.0152 20.3889 17.1819 20.7639 17.3763 21.125C17.6541 21.6806 17.8902 22.2433 18.0846 22.8133C18.2791 23.3833 18.3763 23.9872 18.3763 24.625C18.3763 25.3194 18.2724 25.9933 18.0646 26.6467C17.8569 27.3 17.558 27.9178 17.168 28.5C16.9735 28.7778 16.828 29.0694 16.7313 29.375C16.6346 29.6806 16.5857 30 16.5846 30.3333C16.5846 30.6111 16.6124 30.875 16.668 31.125C16.7235 31.375 16.8207 31.6111 16.9596 31.8333L17.418 32.75C17.6402 33.1667 17.6752 33.5906 17.523 34.0217C17.3707 34.4528 17.0857 34.7789 16.668 35C16.2502 35.2211 15.8263 35.2561 15.3963 35.105C14.9663 34.9539 14.6402 34.6689 14.418 34.25L13.9596 33.3333C13.7096 32.8611 13.5291 32.375 13.418 31.875C13.3069 31.375 13.2513 30.8611 13.2513 30.3333Z" fill="#F36A26"/>
</svg>
