<svg width="24" height="24" viewBox="0 0 24 24" fill="none" xmlns="http://www.w3.org/2000/svg">
<path fill-rule="evenodd" clip-rule="evenodd" d="M16 2.867H14.348C13.6942 2.30647 12.8612 1.99886 12 2C11.094 2 10.28 2.333 9.652 2.867H8C7.20435 2.867 6.44129 3.18307 5.87868 3.74568C5.31607 4.30829 5 5.07135 5 5.867V16C5 16.7957 5.31607 17.5587 5.87868 18.1213C6.44129 18.6839 7.20435 19 8 19C8 19.2652 8.10536 19.5196 8.29289 19.7071C8.48043 19.8946 8.73478 20 9 20H11V22H13V20H15C15.2652 20 15.5196 19.8946 15.7071 19.7071C15.8946 19.5196 16 19.2652 16 19C16.7956 19 17.5587 18.6839 18.1213 18.1213C18.6839 17.5587 19 16.7957 19 16V5.867C19 5.07135 18.6839 4.30829 18.1213 3.74568C17.5587 3.18307 16.7956 2.867 16 2.867ZM16 4.867H13.444C13.3025 4.60682 13.094 4.38921 12.8401 4.23676C12.5862 4.08431 12.2961 4.00257 12 4C11.383 4 10.845 4.349 10.556 4.867H8C7.73478 4.867 7.48043 4.97236 7.29289 5.1599C7.10536 5.34743 7 5.60179 7 5.867V14.025C8.044 13.947 9.83 13.55 12 12C14.17 10.45 15.956 11.207 17 12.006V5.866C17 5.60079 16.8946 5.34643 16.7071 5.1589C16.5196 4.97136 16.2652 4.867 16 4.867Z" fill="#F36A26"/>
</svg>
