<svg width="24" height="24" viewBox="0 0 24 24" fill="none" xmlns="http://www.w3.org/2000/svg">
<g clip-path="url(#clip0_3023_490)">
<path d="M17.3333 0C19.1014 0 20.7971 0.696312 22.0474 1.93576C23.2976 3.1752 24 4.85625 24 6.60908V17.1836C24 18.9365 23.2976 20.6175 22.0474 21.8569C20.7971 23.0964 19.1014 23.7927 17.3333 23.7927H6.66667C4.89856 23.7927 3.20286 23.0964 1.95262 21.8569C0.702379 20.6175 0 18.9365 0 17.1836V6.60908C0 4.85625 0.702379 3.1752 1.95262 1.93576C3.20286 0.696312 4.89856 0 6.66667 0H17.3333ZM12 6.60908C10.5855 6.60908 9.22896 7.16613 8.22876 8.15769C7.22857 9.14924 6.66667 10.4941 6.66667 11.8964C6.66667 13.2986 7.22857 14.6435 8.22876 15.635C9.22896 16.6266 10.5855 17.1836 12 17.1836C13.4145 17.1836 14.771 16.6266 15.7712 15.635C16.7714 14.6435 17.3333 13.2986 17.3333 11.8964C17.3333 10.4941 16.7714 9.14924 15.7712 8.15769C14.771 7.16613 13.4145 6.60908 12 6.60908ZM12 9.25272C12.7072 9.25272 13.3855 9.53124 13.8856 10.027C14.3857 10.5228 14.6667 11.1952 14.6667 11.8964C14.6667 12.5975 14.3857 13.2699 13.8856 13.7657C13.3855 14.2615 12.7072 14.54 12 14.54C11.2928 14.54 10.6145 14.2615 10.1144 13.7657C9.61429 13.2699 9.33333 12.5975 9.33333 11.8964C9.33333 11.1952 9.61429 10.5228 10.1144 10.027C10.6145 9.53124 11.2928 9.25272 12 9.25272ZM18 4.62636C17.6464 4.62636 17.3072 4.76562 17.0572 5.01351C16.8071 5.2614 16.6667 5.59761 16.6667 5.94818C16.6667 6.29874 16.8071 6.63495 17.0572 6.88284C17.3072 7.13073 17.6464 7.26999 18 7.26999C18.3536 7.26999 18.6928 7.13073 18.9428 6.88284C19.1929 6.63495 19.3333 6.29874 19.3333 5.94818C19.3333 5.59761 19.1929 5.2614 18.9428 5.01351C18.6928 4.76562 18.3536 4.62636 18 4.62636Z" fill="#F36A26"/>
</g>
<defs>
<clipPath id="clip0_3023_490">
<rect width="24" height="24" fill="white"/>
</clipPath>
</defs>
</svg>
