<svg width="24" height="24" viewBox="0 0 24 24" fill="none" xmlns="http://www.w3.org/2000/svg">
<path fill-rule="evenodd" clip-rule="evenodd" d="M15.5 12.8655V4.5C15.5 4.23478 15.3946 3.98043 15.2071 3.79289C15.0196 3.60536 14.7652 3.5 14.5 3.5C14.2348 3.5 13.9804 3.60536 13.7929 3.79289C13.6054 3.98043 13.5 4.23478 13.5 4.5V11.5H12.5V3C12.5 2.73478 12.3946 2.48043 12.2071 2.29289C12.0196 2.10536 11.7652 2 11.5 2C11.2348 2 10.9804 2.10536 10.7929 2.29289C10.6054 2.48043 10.5 2.73478 10.5 3V11.5H9.5V4.5C9.5 4.23478 9.39464 3.98043 9.20711 3.79289C9.01957 3.60536 8.76522 3.5 8.5 3.5C8.23478 3.5 7.98043 3.60536 7.79289 3.79289C7.60536 3.98043 7.5 4.23478 7.5 4.5V12.5555H6.5V7.5C6.5 7.23478 6.39464 6.98043 6.20711 6.79289C6.01957 6.60536 5.76522 6.5 5.5 6.5C5.23478 6.5 4.98043 6.60536 4.79289 6.79289C4.60536 6.98043 4.5 7.23478 4.5 7.5V16C4.5 19.3135 7.1865 22 10.5 22H11.211C12.2921 22 13.3532 21.7079 14.282 21.1546C15.2108 20.6013 15.9728 19.8072 16.4875 18.8565L19.9565 12.4485C20.1126 12.1603 20.1518 11.8232 20.066 11.5069C19.9802 11.1906 19.776 10.9194 19.4958 10.7495C19.2155 10.5797 18.8806 10.5242 18.5605 10.5946C18.2404 10.665 17.9597 10.8558 17.7765 11.1275L16.415 13.145C16.139 13.5535 15.5005 13.3585 15.5005 12.865M9.012 14.991C9.14461 14.9909 9.27173 14.9381 9.36541 14.8442C9.45908 14.7503 9.51163 14.6231 9.5115 14.4905C9.51137 14.3579 9.45856 14.2308 9.3647 14.1371C9.27084 14.0434 9.14361 13.9909 9.011 13.991C8.87839 13.9911 8.75127 14.0439 8.65759 14.1378C8.56392 14.2317 8.51137 14.3589 8.5115 14.4915C8.51163 14.6241 8.56444 14.7512 8.6583 14.8449C8.75216 14.9386 8.87939 14.9911 9.012 14.991ZM11.512 15.489C11.6446 15.489 11.7718 15.4363 11.8656 15.3426C11.9593 15.2488 12.012 15.1216 12.012 14.989C12.012 14.8564 11.9593 14.7292 11.8656 14.6354C11.7718 14.5417 11.6446 14.489 11.512 14.489C11.3794 14.489 11.2522 14.5417 11.1584 14.6354C11.0647 14.7292 11.012 14.8564 11.012 14.989C11.012 15.1216 11.0647 15.2488 11.1584 15.3426C11.2522 15.4363 11.3794 15.489 11.512 15.489ZM10.5135 16.99C10.5136 17.1226 10.4611 17.2498 10.3674 17.3437C10.2737 17.4376 10.1466 17.4904 10.014 17.4905C9.94834 17.4906 9.88331 17.4777 9.82262 17.4526C9.76193 17.4276 9.70678 17.3908 9.6603 17.3444C9.56644 17.2507 9.51363 17.1236 9.5135 16.991C9.51337 16.8584 9.56592 16.7312 9.65959 16.6373C9.75327 16.5434 9.88039 16.4906 10.013 16.4905C10.1456 16.4904 10.2728 16.5429 10.3667 16.6366C10.4606 16.7303 10.5134 16.8574 10.5135 16.99ZM12.5135 16.9885C12.6461 16.9884 12.7733 16.9357 12.867 16.8419C12.9607 16.7481 13.0133 16.6209 13.0133 16.4883C13.0132 16.3556 12.9604 16.2285 12.8666 16.1348C12.7728 16.041 12.6456 15.9884 12.513 15.9885C12.3804 15.9886 12.2532 16.0413 12.1595 16.1351C12.0658 16.2289 12.0132 16.3561 12.0133 16.4888C12.0133 16.6214 12.0661 16.7485 12.1599 16.8422C12.2537 16.936 12.3809 16.9886 12.5135 16.9885ZM14.015 18.487C14.0151 18.6196 13.9626 18.7468 13.8689 18.8407C13.7752 18.9346 13.6481 18.9874 13.5155 18.9875C13.4498 18.9876 13.3848 18.9747 13.3241 18.9496C13.2634 18.9246 13.2083 18.8878 13.1618 18.8414C13.0679 18.7477 13.0151 18.6206 13.015 18.488C13.0149 18.3554 13.0674 18.2282 13.1611 18.1343C13.2548 18.0404 13.3819 17.9876 13.5145 17.9875C13.6471 17.9874 13.7743 18.0399 13.8682 18.1336C13.9621 18.2273 14.0149 18.3544 14.015 18.487ZM14.513 16.487C14.6456 16.4869 14.7728 16.4342 14.8665 16.3404C14.9602 16.2466 15.0128 16.1194 15.0127 15.9867C15.0127 15.8541 14.9599 15.727 14.8661 15.6333C14.7723 15.5395 14.6451 15.4869 14.5125 15.487C14.4468 15.487 14.3818 15.5 14.3212 15.5252C14.2605 15.5503 14.2054 15.5872 14.159 15.6336C14.1126 15.6801 14.0758 15.7352 14.0507 15.7959C14.0256 15.8566 14.0127 15.9216 14.0127 15.9873C14.0128 16.0529 14.0257 16.1179 14.0509 16.1786C14.0761 16.2392 14.1129 16.2943 14.1594 16.3407C14.2058 16.3871 14.261 16.4239 14.3216 16.449C14.3823 16.4741 14.4473 16.487 14.513 16.487ZM11.515 18.989C11.5151 19.1216 11.4626 19.2488 11.3689 19.3427C11.2752 19.4366 11.1481 19.4894 11.0155 19.4895C10.8829 19.4896 10.7557 19.4371 10.6618 19.3434C10.5679 19.2497 10.5151 19.1226 10.515 18.99C10.5149 18.9243 10.5278 18.8593 10.5529 18.7986C10.5779 18.7379 10.6147 18.6828 10.6611 18.6363C10.7075 18.5898 10.7626 18.5529 10.8232 18.5278C10.8838 18.5026 10.9488 18.4896 11.0145 18.4895C11.0802 18.4894 11.1452 18.5023 11.2059 18.5274C11.2666 18.5524 11.3217 18.5892 11.3682 18.6356C11.4147 18.682 11.4516 18.7371 11.4767 18.7977C11.5019 18.8583 11.5149 18.9233 11.515 18.989ZM8.515 18.9915C8.58066 18.9915 8.64567 18.9785 8.70632 18.9533C8.76697 18.9282 8.82207 18.8913 8.86848 18.8449C8.91489 18.7984 8.95169 18.7433 8.97679 18.6826C9.00188 18.6219 9.01478 18.5569 9.01475 18.4912C9.01472 18.4256 9.00175 18.3606 8.97659 18.2999C8.95144 18.2393 8.91458 18.1842 8.86813 18.1378C8.82167 18.0914 8.76654 18.0546 8.70586 18.0295C8.64519 18.0044 8.58016 17.9915 8.5145 17.9915C8.38189 17.9916 8.25474 18.0443 8.16102 18.1381C8.0673 18.2319 8.01468 18.3591 8.01475 18.4918C8.01482 18.6244 8.06756 18.7515 8.16137 18.8452C8.25519 18.939 8.38239 18.9916 8.515 18.9915ZM8.013 16.492C8.01307 16.5577 8.0002 16.6227 7.97513 16.6834C7.95006 16.7441 7.91329 16.7992 7.86691 16.8457C7.82052 16.8922 7.76544 16.9291 7.7048 16.9542C7.64417 16.9794 7.57916 16.9924 7.5135 16.9925C7.44784 16.9926 7.38281 16.9797 7.32212 16.9546C7.26143 16.9296 7.20628 16.8928 7.1598 16.8464C7.11332 16.8 7.07644 16.7449 7.05125 16.6843C7.02606 16.6237 7.01307 16.5587 7.013 16.493C7.01287 16.3604 7.06542 16.2332 7.15909 16.1393C7.25277 16.0454 7.37989 15.9926 7.5125 15.9925C7.64511 15.9924 7.77234 16.0449 7.8662 16.1386C7.96006 16.2323 8.01287 16.3594 8.013 16.492Z" fill="#F36A26"/>
</svg>
