<svg width="24" height="24" viewBox="0 0 24 24" fill="none" xmlns="http://www.w3.org/2000/svg">
<path d="M2 2V20C2 20.5304 2.21071 21.0391 2.58579 21.4142C2.96086 21.7893 3.46957 22 4 22H22V20H4V19H5.179C6.145 19 7.159 18.982 8.177 18.849C9.262 18.706 10.852 18.428 12.031 17.885C14.811 16.605 16.521 15.142 18.118 12.358C18.703 11.3456 19.1096 10.2402 19.32 9.09L20.477 10.367L21.959 9.024L18.776 5.514L14.75 8.01L15.805 9.71L17.349 8.752C17.1782 9.67103 16.8515 10.5541 16.383 11.363C15.008 13.763 13.623 14.951 11.196 16.068C10.313 16.475 8.984 16.726 7.919 16.865C7.036 16.981 6.131 17 5.179 17H4V2H2Z" fill="#F36A26"/>
<path d="M10.8 2.8C10.8 2.58783 10.7157 2.38434 10.5657 2.23431C10.4157 2.08429 10.2122 2 10 2C9.78783 2 9.58434 2.08429 9.43431 2.23431C9.28429 2.38434 9.2 2.58783 9.2 2.8V3.737C9.12 3.765 9.04167 3.79733 8.965 3.834L8.303 3.171C8.15289 3.02102 7.94934 2.93681 7.73715 2.93691C7.52495 2.937 7.32148 3.02139 7.1715 3.1715C7.02152 3.32161 6.93731 3.52516 6.93741 3.73735C6.9375 3.94955 7.02189 4.15302 7.172 4.303L7.834 4.965C7.79672 5.0412 7.76432 5.11969 7.737 5.2H6.8C6.58783 5.2 6.38434 5.28429 6.23431 5.43431C6.08429 5.58434 6 5.78783 6 6C6 6.21217 6.08429 6.41566 6.23431 6.56569C6.38434 6.71571 6.58783 6.8 6.8 6.8H7.737C7.765 6.88 7.79733 6.95833 7.834 7.035L7.172 7.697C7.0283 7.84825 6.94938 8.04965 6.95205 8.25826C6.95472 8.46687 7.03878 8.66618 7.1863 8.8137C7.33382 8.96122 7.53313 9.04528 7.74174 9.04795C7.95035 9.05062 8.15175 8.9717 8.303 8.828L8.965 8.166C9.041 8.20267 9.11933 8.235 9.2 8.263V9.2C9.2 9.41217 9.28429 9.61566 9.43431 9.76569C9.58434 9.91571 9.78783 10 10 10C10.2122 10 10.4157 9.91571 10.5657 9.76569C10.7157 9.61566 10.8 9.41217 10.8 9.2V8.263C10.88 8.235 10.9583 8.20267 11.035 8.166L11.697 8.828C11.8482 8.9717 12.0496 9.05062 12.2583 9.04795C12.4669 9.04528 12.6662 8.96122 12.8137 8.8137C12.9612 8.66618 13.0453 8.46687 13.048 8.25826C13.0506 8.04965 12.9717 7.84825 12.828 7.697L12.166 7.035C12.2027 6.959 12.235 6.88067 12.263 6.8H13.2C13.4122 6.8 13.6157 6.71571 13.7657 6.56569C13.9157 6.41566 14 6.21217 14 6C14 5.78783 13.9157 5.58434 13.7657 5.43431C13.6157 5.28429 13.4122 5.2 13.2 5.2H12.263C12.2357 5.11969 12.2033 5.0412 12.166 4.965L12.828 4.303C12.9717 4.15175 13.0506 3.95035 13.048 3.74174C13.0453 3.53313 12.9612 3.33382 12.8137 3.1863C12.6662 3.03878 12.4669 2.95472 12.2583 2.95205C12.0496 2.94938 11.8482 3.0283 11.697 3.172L11.035 3.834C10.9588 3.79672 10.8803 3.76432 10.8 3.737V2.8Z" fill="#F36A26"/>
</svg>
