<svg width="24" height="24" viewBox="0 0 24 24" fill="none" xmlns="http://www.w3.org/2000/svg">
<path d="M15.8145 13.5C15.2575 11.948 13.536 9.926 11.848 7.9435C9.891 5.645 7.979 3.3995 7.979 2H5V22H9V19.5925C8.41275 19.4272 7.84028 19.2133 7.2885 18.953L7.7115 18.047C9.2555 18.7675 10.587 18.9865 11.7195 18.8555C12.843 18.4435 13.923 17.7135 14.726 16.8525C14.754 16.8165 14.8115 16.7525 14.87 16.6875C14.9305 16.6205 14.9915 16.5525 15.021 16.515C15.288 16.188 15.514 15.8465 15.687 15.5H16C16.2652 15.5 16.5196 15.3946 16.7071 15.2071C16.8946 15.0196 17 14.7652 17 14.5C17 14.2348 16.8946 13.9804 16.7071 13.7929C16.5196 13.6054 16.2652 13.5 16 13.5H15.8145ZM16 17.379C16 17.069 16.181 16.73 16.3655 16.466C16.556 16.193 16.75 16 16.75 16C16.75 16 16.944 16.193 17.1345 16.466C17.319 16.73 17.5 17.0685 17.5 17.379C17.5 17.777 17.164 18.1 16.75 18.1C16.336 18.1 16 17.777 16 17.379ZM16.5 20.798C16.5 20.281 16.802 19.717 17.109 19.277C17.3022 19.0018 17.5166 18.742 17.75 18.5C17.75 18.5 18.073 18.822 18.391 19.277C18.698 19.717 19 20.281 19 20.798C19 21.462 18.44 22 17.75 22C17.06 22 16.5 21.462 16.5 20.798Z" fill="#F36A26"/>
</svg>
