<svg width="24" height="24" viewBox="0 0 24 24" fill="none" xmlns="http://www.w3.org/2000/svg">
<path d="M9.055 11L9.193 10.588L9.213 10.526C9.403 9.966 9.638 9.266 9.796 8.598C9.942 7.986 10.125 7.02 9.879 6.108C9.71987 5.4881 9.35318 4.94142 8.84 4.559C8.257 4.13 7.603 4 7.04 4C4.689 4 3.44 5.994 2.905 7.159C2.302 8.469 2 9.98 2 10.909C2 11.879 2.335 13.176 2.766 14.194C2.988 14.719 3.29 15.304 3.688 15.794C4.02 16.203 4.786 17 5.981 17C6.424 17 6.914 16.894 7.368 16.606C7.75285 16.3589 8.0657 16.0146 8.275 15.608C8.585 15.014 8.647 14.367 8.673 14.01C8.693 13.744 8.701 13.412 8.709 13.13L8.713 13C9.043 13 9.298 13.001 9.5 13.007V19C9.50013 19.2652 9.60562 19.5195 9.79325 19.707C9.98088 19.8944 10.2353 19.9996 10.5005 19.9995C10.7657 19.9994 11.02 19.8939 11.2075 19.7063C11.3949 19.5186 11.5001 19.2642 11.5 18.999V12.739C11.5 12.589 11.502 12.306 11.43 12.053C11.3734 11.851 11.2697 11.6652 11.1276 11.5108C10.9854 11.3565 10.8087 11.238 10.612 11.165C10.317 11.051 9.979 11.025 9.699 11.013C9.48442 11.0052 9.26972 11.0012 9.055 11.001M15.287 13C14.956 13 14.701 13.001 14.5 13.007V19C14.4999 19.2652 14.3944 19.5195 14.2068 19.707C14.0191 19.8944 13.7647 19.9996 13.4995 19.9995C13.2343 19.9994 12.98 19.8939 12.7925 19.7063C12.6051 19.5186 12.4999 19.2642 12.5 18.999V12.739C12.5 12.589 12.498 12.306 12.57 12.053C12.6266 11.851 12.7303 11.6652 12.8724 11.5108C13.0146 11.3565 13.1913 11.238 13.388 11.165C13.682 11.051 14.021 11.025 14.301 11.013C14.483 11.0063 14.6973 11.0023 14.944 11.001L14.806 10.588L14.786 10.526C14.597 9.966 14.361 9.266 14.203 8.598C14.057 7.986 13.875 7.02 14.121 6.108C14.2799 5.48824 14.6462 4.94158 15.159 4.559C15.742 4.13 16.397 4 16.96 4C19.311 4 20.56 5.994 21.095 7.159C21.698 8.469 21.999 9.981 21.999 10.909C21.999 11.879 21.664 13.176 21.233 14.194C21.011 14.719 20.709 15.304 20.311 15.794C19.98 16.203 19.213 17 18.02 17C17.576 17 17.087 16.894 16.632 16.606C16.2472 16.3589 15.9343 16.0146 15.725 15.608C15.415 15.014 15.354 14.367 15.328 14.01C15.3066 13.6737 15.2932 13.3369 15.288 13" fill="#F36A26"/>
</svg>
