<svg width="24" height="24" viewBox="0 0 24 24" fill="none" xmlns="http://www.w3.org/2000/svg">
<path d="M3.299 17.5968C3.731 18.9288 5.044 19.7788 6.445 19.7788H6.5C6.62853 20.4061 6.96969 20.9698 7.46582 21.3747C7.96196 21.7795 8.58265 22.0007 9.223 22.0008C9.68 22.0008 10.107 21.8858 10.485 21.6878C10.6429 21.6015 10.7743 21.4737 10.865 21.3183C10.9558 21.1629 11.0024 20.9857 11 20.8058V3.02778C11.0015 2.79882 10.9243 2.57629 10.7814 2.39738C10.6386 2.21847 10.4386 2.094 10.215 2.04478C9.71332 1.94703 9.1934 2.01769 8.736 2.24578C7.992 2.60178 7.556 3.39678 7.556 4.22378V4.27878C6.99921 4.16514 6.42097 4.22498 5.89925 4.45025C5.37754 4.67551 4.93746 5.05535 4.63837 5.53854C4.33928 6.02173 4.19557 6.58502 4.22661 7.15244C4.25766 7.71986 4.46197 8.26411 4.812 8.71178C4.02834 8.83518 3.31449 9.2343 2.79896 9.83728C2.28344 10.4403 2.00011 11.2075 2 12.0008C2 13.1788 2.611 14.2118 3.533 14.8128C3.103 15.5838 2.962 16.5588 3.299 17.5968ZM19.188 8.71178C19.538 8.26411 19.7423 7.71986 19.7734 7.15244C19.8044 6.58502 19.6607 6.02173 19.3616 5.53854C19.0625 5.05535 18.6225 4.67551 18.1007 4.45025C17.579 4.22498 17.0008 4.16514 16.444 4.27878V4.22378C16.444 3.39778 16.007 2.60178 15.263 2.24578C14.8059 2.01791 14.2864 1.94726 13.785 2.04478C13.5614 2.094 13.3614 2.21847 13.2186 2.39738C13.0757 2.57629 12.9985 2.79882 13 3.02778V20.8048C13 21.1698 13.192 21.5168 13.516 21.6868C13.894 21.8858 14.32 22.0008 14.777 22.0008C15.4175 22.0006 16.0383 21.7793 16.5344 21.3743C17.0306 20.9692 17.3717 20.4053 17.5 19.7778H17.556C18.956 19.7778 20.27 18.9278 20.702 17.5958C21.039 16.5578 20.898 15.5828 20.468 14.8118C20.9377 14.5083 21.3239 14.0921 21.5915 13.6011C21.8591 13.1101 21.9995 12.56 22 12.0008C21.9999 11.2075 21.7166 10.4403 21.201 9.83728C20.6855 9.2343 19.9717 8.83518 19.188 8.71178Z" fill="#F36A26"/>
</svg>
