<svg width="24" height="24" viewBox="0 0 24 24" fill="none" xmlns="http://www.w3.org/2000/svg">
<path d="M14.1875 15.375C14.5024 15.375 14.8045 15.2499 15.0272 15.0272C15.2499 14.8045 15.375 14.5024 15.375 14.1875C15.375 13.8726 15.2499 13.5705 15.0272 13.3478C14.8045 13.1251 14.5024 13 14.1875 13C13.8726 13 13.5705 13.1251 13.3478 13.3478C13.1251 13.5705 13 13.8726 13 14.1875C13 14.5024 13.1251 14.8045 13.3478 15.0272C13.5705 15.2499 13.8726 15.375 14.1875 15.375Z" fill="#F36A26"/>
<path fill-rule="evenodd" clip-rule="evenodd" d="M16.4715 10.9715L16.2505 11.6085L16.7575 12.0525C17.1082 12.3566 17.3895 12.7325 17.5823 13.1548C17.7751 13.577 17.8749 14.0358 17.875 14.5C17.875 16.2185 16.522 17.646 14.783 17.768L13.975 17.8245L13.8625 18.627C13.775 19.251 13.2255 19.75 12.5415 19.75C11.793 19.75 11.2085 19.1545 11.2085 18.4475C11.2085 18.0905 11.354 17.766 11.597 17.528L12.1825 16.954L11.734 16.267C11.3126 15.6246 11.1352 14.8524 11.234 14.0905L11.327 13.356L10.652 13.053C10.4217 12.9518 10.2258 12.786 10.0879 12.5757C9.94994 12.3653 9.876 12.1195 9.875 11.868C9.875 11.1615 10.4595 10.5655 11.2085 10.5655C11.854 10.5655 12.3655 10.466 12.807 10.2855C13.217 10.1175 13.522 9.8945 13.7375 9.7375L13.767 9.716C13.9925 9.551 14.13 9.457 14.311 9.3855C14.485 9.3165 14.751 9.25 15.2085 9.25C15.957 9.25 16.5415 9.8455 16.5415 10.5525C16.5415 10.701 16.5165 10.8415 16.4715 10.9715ZM14.1875 16.375C14.7677 16.375 15.3241 16.1445 15.7343 15.7343C16.1445 15.3241 16.375 14.7677 16.375 14.1875C16.375 13.6073 16.1445 13.0509 15.7343 12.6407C15.3241 12.2305 14.7677 12 14.1875 12C13.6073 12 13.0509 12.2305 12.6407 12.6407C12.2305 13.0509 12 13.6073 12 14.1875C12 14.7677 12.2305 15.3241 12.6407 15.7343C13.0509 16.1445 13.6073 16.375 14.1875 16.375Z" fill="#F36A26"/>
<path d="M6.375 13.875C6.375 13.7092 6.44085 13.5503 6.55806 13.4331C6.67527 13.3158 6.83424 13.25 7 13.25C7.16576 13.25 7.32473 13.3158 7.44194 13.4331C7.55915 13.5503 7.625 13.7092 7.625 13.875V15.75C7.625 15.9158 7.55915 16.0747 7.44194 16.1919C7.32473 16.3092 7.16576 16.375 7 16.375C6.83424 16.375 6.67527 16.3092 6.55806 16.1919C6.44085 16.0747 6.375 15.9158 6.375 15.75V13.875Z" fill="#F36A26"/>
<path fill-rule="evenodd" clip-rule="evenodd" d="M22 12C22 17.523 17.523 22 12 22C6.477 22 2 17.523 2 12C2 6.477 6.477 2 12 2C17.523 2 22 6.477 22 12ZM8.076 6.164C7.31839 6.69303 6.69943 7.39686 6.27156 8.21588C5.84369 9.03489 5.61951 9.94496 5.618 10.869C5.61767 11.0016 5.56467 11.1287 5.47067 11.2222C5.37667 11.3157 5.24936 11.3681 5.11675 11.3678C4.98414 11.3674 4.8571 11.3144 4.76356 11.2204C4.67003 11.1264 4.61767 10.9991 4.618 10.8665C4.6275 7.134 7.661 4.1155 11.394 4.125C11.5266 4.12533 11.6537 4.17833 11.7472 4.27233C11.8407 4.36633 11.8931 4.49364 11.8927 4.62625C11.8924 4.75886 11.8394 4.8859 11.7454 4.97944C11.6514 5.07297 11.5241 5.12533 11.3915 5.125C10.5477 5.12209 9.71368 5.30492 8.9485 5.6605L9.538 6.4465C10.6334 5.93259 11.8799 5.84039 13.039 6.1875C13.1661 6.22543 13.2729 6.31229 13.336 6.42899C13.3991 6.54568 13.4132 6.68265 13.3752 6.80975C13.3373 6.93686 13.2505 7.04369 13.1338 7.10675C13.0171 7.16981 12.8801 7.18393 12.753 7.146C11.7524 6.84774 10.6743 6.95916 9.75586 7.45575C8.83742 7.95234 8.15384 8.79343 7.8555 9.794C7.83845 9.85879 7.80855 9.9195 7.76757 9.97251C7.7266 10.0255 7.67539 10.0698 7.61699 10.1026C7.55859 10.1354 7.49418 10.1562 7.4276 10.1636C7.36101 10.1711 7.29361 10.1651 7.22939 10.146C7.16518 10.1269 7.10545 10.0951 7.05377 10.0524C7.00209 10.0098 6.95951 9.9572 6.92855 9.89778C6.89759 9.83836 6.87889 9.77333 6.87355 9.70654C6.86822 9.63975 6.87636 9.57258 6.8975 9.509C7.19922 8.49037 7.82286 7.59692 8.675 6.9625L8.076 6.164ZM12.5415 20.75C13.721 20.75 14.696 19.8865 14.853 18.7655C17.101 18.608 18.875 16.7585 18.875 14.5005C18.875 13.8937 18.7447 13.294 18.493 12.7418C18.2413 12.1897 17.874 11.698 17.416 11.3C17.4975 11.0655 17.5415 10.814 17.5415 10.5525C17.5415 9.281 16.497 8.25 15.2085 8.25C14.0795 8.25 13.6205 8.585 13.165 8.917C12.7185 9.243 12.276 9.5655 11.2085 9.5655C9.9195 9.5655 8.875 10.5965 8.875 11.8685C8.875 12.8 9.4355 13.6025 10.242 13.965C10.2197 14.1403 10.2085 14.3187 10.2085 14.5C10.2085 15.3525 10.461 16.147 10.897 16.814C10.679 17.0265 10.5057 17.2805 10.3875 17.5611C10.2692 17.8417 10.2084 18.143 10.2085 18.4475C10.2085 19.719 11.253 20.75 12.5415 20.75ZM8.625 15.75V13.875C8.625 13.444 8.4538 13.0307 8.14905 12.726C7.8443 12.4212 7.43098 12.25 7 12.25C6.56902 12.25 6.1557 12.4212 5.85095 12.726C5.54621 13.0307 5.375 13.444 5.375 13.875V15.75C5.375 16.181 5.54621 16.5943 5.85095 16.899C6.1557 17.2038 6.56902 17.375 7 17.375C7.43098 17.375 7.8443 17.2038 8.14905 16.899C8.4538 16.5943 8.625 16.181 8.625 15.75Z" fill="#F36A26"/>
</svg>
