<svg width="26" height="26" viewBox="0 0 26 26" fill="none" xmlns="http://www.w3.org/2000/svg">
<path d="M9.22382 3.79102C6.39632 3.79102 4.33203 6.74472 4.33203 9.92972C4.33203 10.7856 4.46528 11.6051 4.70036 12.3835C4.81592 12.7644 4.95368 13.1353 5.11366 13.4961C7.33828 18.5271 13.5404 21.594 13.5404 21.594C13.5404 21.594 14.9124 20.8714 16.5975 19.5931C15.5304 18.8391 14.0549 17.5634 13.3432 15.8983C13.2574 15.6982 13.1838 15.4931 13.1227 15.2841C12.9934 14.8447 12.9274 14.3891 12.9267 13.931C12.9267 12.1733 14.0279 10.544 15.5353 10.544C16.5818 10.544 17.358 11.2752 17.8374 12.312C18.3168 11.2752 19.0935 10.544 20.1395 10.544C21.1372 10.544 21.9562 11.2568 22.3966 12.2481C22.6214 11.506 22.7487 10.7314 22.7487 9.92972C22.7487 6.74472 20.6844 3.79102 17.8569 3.79102C15.895 3.79102 14.439 5.11647 13.5404 6.99606C12.6417 5.11647 11.1857 3.79102 9.22382 3.79102ZM21.9124 13.5957C21.993 13.5969 22.0726 13.6139 22.1467 13.6458C22.2208 13.6777 22.2878 13.7239 22.344 13.7818C22.4002 13.8396 22.4444 13.908 22.4742 13.9829C22.5039 14.0579 22.5186 14.138 22.5174 14.2186C22.4903 16.2282 21.518 17.5959 20.5734 18.4436C20.1802 18.7951 19.7489 19.1012 19.2874 19.3563C19.107 19.456 18.9215 19.5462 18.7317 19.6266C18.7158 19.6324 18.7033 19.6375 18.6943 19.6418L18.6829 19.6461L18.6786 19.6478L18.677 19.6483C18.5262 19.6994 18.3615 19.69 18.2175 19.622C18.0735 19.5541 17.9616 19.4328 17.9052 19.2839C17.8489 19.135 17.8526 18.97 17.9155 18.8238C17.9785 18.6776 18.0957 18.5615 18.2426 18.5L18.2453 18.4989L18.2648 18.4908L18.3536 18.4528C18.8628 18.2157 19.3343 17.905 19.7533 17.5309C20.5187 16.843 21.2683 15.7786 21.29 14.2013C21.291 14.1207 21.308 14.041 21.3398 13.9669C21.3717 13.8928 21.4179 13.8258 21.4757 13.7695C21.5335 13.7133 21.6018 13.669 21.6767 13.6392C21.7516 13.6093 21.8317 13.5946 21.9124 13.5957Z" fill="#F36A26"/>
</svg>
