<svg width="27" height="22" viewBox="0 0 27 22" fill="none" xmlns="http://www.w3.org/2000/svg">
<g clip-path="url(#clip0_3167_64)">
<path d="M20.925 11C21.2963 11 21.6 10.6906 21.6 10.3125C21.6 9.93437 21.2963 9.625 20.925 9.625C20.5538 9.625 20.25 9.93437 20.25 10.3125C20.25 10.6906 20.5538 11 20.925 11ZM13.5 7.5625C15.5461 7.5625 17.2125 5.86523 17.2125 3.78125C17.2125 1.69727 15.5461 0 13.5 0C11.4539 0 9.7875 1.69727 9.7875 3.78125C9.7875 5.86523 11.4539 7.5625 13.5 7.5625ZM2.52281 15.6406C2.95313 16.298 3.75891 16.4055 4.33266 16.0617C5.01609 15.6492 6.70359 14.6996 8.775 13.9734V17.875H18.225V13.9777C20.2964 14.6996 21.9839 15.6535 22.6673 16.066C23.2411 16.4098 24.0469 16.2938 24.4772 15.6449L25.2281 14.4977C25.5994 13.9305 25.5488 13.0109 24.8063 12.5598C24.3042 12.2547 23.5533 11.8293 22.6505 11.3824C21.465 13.3633 18.457 12.1473 18.9506 9.87422C17.2673 9.33281 15.4027 8.9375 13.5 8.9375C11.0953 8.9375 8.73703 9.56055 6.75 10.3211C6.74156 12.0484 4.74188 13.041 3.40875 11.868C2.93625 12.1258 2.51016 12.3664 2.19797 12.5555C1.45547 13.0066 1.40484 13.9219 1.77609 14.4934L2.52281 15.6406ZM15.525 14.7812C16.0861 14.7812 16.5375 15.241 16.5375 15.8125C16.5375 16.384 16.0861 16.8438 15.525 16.8438C14.9639 16.8438 14.5125 16.384 14.5125 15.8125C14.5125 15.241 14.9639 14.7812 15.525 14.7812ZM11.475 10.6562C12.0361 10.6562 12.4875 11.116 12.4875 11.6875C12.4875 12.259 12.0361 12.7188 11.475 12.7188C10.9139 12.7188 10.4625 12.259 10.4625 11.6875C10.4625 11.116 10.9139 10.6562 11.475 10.6562ZM4.725 11C5.09625 11 5.4 10.6906 5.4 10.3125C5.4 9.93437 5.09625 9.625 4.725 9.625C4.35375 9.625 4.05 9.93437 4.05 10.3125C4.05 10.6906 4.35375 11 4.725 11ZM26.325 19.25H0.675C0.30375 19.25 0 19.5594 0 19.9375V21.3125C0 21.6906 0.30375 22 0.675 22H26.325C26.6963 22 27 21.6906 27 21.3125V19.9375C27 19.5594 26.6963 19.25 26.325 19.25Z" fill="#F36A26"/>
</g>
<defs>
<clipPath id="clip0_3167_64">
<rect width="27" height="22" fill="white"/>
</clipPath>
</defs>
</svg>
