<svg width="24" height="24" viewBox="0 0 24 24" fill="none" xmlns="http://www.w3.org/2000/svg">
<path d="M11.3209 1C13.3413 0.999685 15.2927 1.74162 16.8111 3.08733C18.3294 4.43305 19.3109 6.29058 19.5723 8.31325L21.9123 12.0292C22.0662 12.2738 22.035 12.6382 21.6783 12.7936L19.6409 13.6735V16.75C19.6409 17.307 19.4218 17.8411 19.0317 18.2349C18.6416 18.6287 18.1125 18.85 17.5609 18.85H15.4819L15.4809 22H6.12085V18.1213C6.12085 16.8823 5.66741 15.7094 4.82605 14.651C3.84605 13.4157 3.2317 11.9259 3.05377 10.3534C2.87584 8.78088 3.14157 7.18961 3.82035 5.76292C4.49913 4.33623 5.56334 3.13219 6.89036 2.28952C8.21737 1.44685 9.7532 0.999841 11.3209 1ZM10.7697 7.05115C10.4265 6.71636 9.96678 6.53106 9.48958 6.53515C9.01238 6.53924 8.55586 6.73239 8.21834 7.07301C7.88083 7.41363 7.68933 7.87446 7.68509 8.35625C7.68085 8.83803 7.8642 9.30223 8.19566 9.64885L11.3209 12.8051L14.4461 9.64885C14.6199 9.47931 14.7585 9.27652 14.8538 9.05232C14.9492 8.82812 14.9993 8.58699 15.0014 8.34301C15.0034 8.09903 14.9573 7.85708 14.8658 7.63127C14.7742 7.40547 14.639 7.20034 14.4681 7.02785C14.2972 6.85535 14.094 6.71895 13.8703 6.62661C13.6466 6.53426 13.4069 6.48782 13.1653 6.48999C12.9236 6.49216 12.6848 6.5429 12.4628 6.63924C12.2407 6.73559 12.0399 6.87562 11.8721 7.05115L11.3209 7.60765L10.7697 7.05115Z" fill="#F36A26"/>
</svg>
