<svg width="24" height="24" viewBox="0 0 24 24" fill="none" xmlns="http://www.w3.org/2000/svg">
<path fill-rule="evenodd" clip-rule="evenodd" d="M9.5 2C9.63261 2 9.75979 2.05268 9.85355 2.14645C9.94732 2.24021 10 2.36739 10 2.5V6.6715C10 6.93421 9.94826 7.19434 9.84772 7.43705C9.74717 7.67975 9.59979 7.90027 9.414 8.086L9.1625 8.3375C8.88631 8.61339 8.71735 8.97858 8.68585 9.36768C8.65436 9.75678 8.7624 10.1444 8.99062 10.4611C9.21885 10.7778 9.55236 11.0029 9.93143 11.0962C10.3105 11.1894 10.7104 11.1447 11.0595 10.97L11.181 10.91C11.4353 10.7828 11.7157 10.7165 12 10.7165C12.2843 10.7165 12.5647 10.7828 12.819 10.91L12.9405 10.97C13.2896 11.1447 13.6895 11.1894 14.0686 11.0962C14.4476 11.0029 14.7812 10.7778 15.0094 10.4611C15.2376 10.1444 15.3456 9.75678 15.3141 9.36768C15.2827 8.97858 15.1137 8.61339 14.8375 8.3375L14.586 8.086C14.4002 7.90027 14.2528 7.67975 14.1523 7.43705C14.0517 7.19434 14 6.93421 14 6.6715V2.5C14 2.36739 14.0527 2.24021 14.1464 2.14645C14.2402 2.05268 14.3674 2 14.5 2C14.6326 2 14.7598 2.05268 14.8536 2.14645C14.9473 2.24021 15 2.36739 15 2.5V3.512C18.4955 4.7475 21 8.0815 21 12C21 15.9185 18.4955 19.2525 15 20.488V21.5C15 21.6326 14.9473 21.7598 14.8536 21.8536C14.7598 21.9473 14.6326 22 14.5 22C14.3674 22 14.2402 21.9473 14.1464 21.8536C14.0527 21.7598 14 21.6326 14 21.5V17.3285C14 17.0658 14.0517 16.8057 14.1523 16.563C14.2528 16.3203 14.4002 16.0997 14.586 15.914L14.8375 15.6625C15.1137 15.3866 15.2827 15.0214 15.3141 14.6323C15.3456 14.2432 15.2376 13.8556 15.0094 13.5389C14.7812 13.2222 14.4476 12.9971 14.0686 12.9038C13.6895 12.8106 13.2896 12.8553 12.9405 13.03L12.819 13.09C12.5647 13.2172 12.2843 13.2835 12 13.2835C11.7157 13.2835 11.4353 13.2172 11.181 13.09L11.0595 13.03C10.7104 12.8553 10.3105 12.8106 9.93143 12.9038C9.55236 12.9971 9.21885 13.2222 8.99062 13.5389C8.7624 13.8556 8.65436 14.2432 8.68585 14.6323C8.71735 15.0214 8.88631 15.3866 9.1625 15.6625L9.414 15.914C9.59979 16.0997 9.74717 16.3203 9.84772 16.563C9.94826 16.8057 10 17.0658 10 17.3285V21.5C10 21.6326 9.94732 21.7598 9.85355 21.8536C9.75979 21.9473 9.63261 22 9.5 22C9.36739 22 9.24021 21.9473 9.14645 21.8536C9.05268 21.7598 9 21.6326 9 21.5V20.488C5.5045 19.2525 3 15.9185 3 12C3 8.0815 5.5045 4.7475 9 3.512V2.5C9 2.36739 9.05268 2.24021 9.14645 2.14645C9.24021 2.05268 9.36739 2 9.5 2Z" fill="#F36A26"/>
</svg>
