<svg width="20" height="20" viewBox="0 0 20 20" fill="none" xmlns="http://www.w3.org/2000/svg">
<path d="M10.7732 0.304688C7.41664 0.304688 4.32289 2.82469 3.67852 5.60156C3.53508 6.21813 3.37383 7.83125 3.37383 7.83125L1.83164 11.7219C1.79361 11.8125 1.77855 11.9112 1.78781 12.009C1.79707 12.1069 1.83035 12.201 1.88471 12.2829C1.93907 12.3648 2.01281 12.432 2.09939 12.4785C2.18598 12.5251 2.28272 12.5495 2.38102 12.5497H2.54477C2.52571 12.4847 2.52402 12.4158 2.53986 12.35C2.55571 12.2841 2.58854 12.2236 2.63508 12.1744C2.862 11.938 3.11247 11.7255 3.38258 11.54C3.42538 11.5109 3.47349 11.4906 3.52416 11.4801C3.57484 11.4696 3.62708 11.4692 3.6779 11.4789C3.72873 11.4886 3.77714 11.5082 3.82039 11.5367C3.86363 11.5651 3.90085 11.6017 3.92992 11.6445C3.959 11.6873 3.97936 11.7354 3.98984 11.7861C4.00032 11.8368 4.00072 11.889 3.99102 11.9399C3.98131 11.9907 3.96169 12.0391 3.93327 12.0823C3.90485 12.1256 3.8682 12.1628 3.82539 12.1919C3.67039 12.2969 3.52008 12.4244 3.37383 12.5606V14.0078H3.72164C3.82616 14.0078 3.92639 14.0493 4.00029 14.1232C4.07419 14.1971 4.11571 14.2974 4.11571 14.4019C4.11571 14.5064 4.07419 14.6066 4.00029 14.6805C3.92639 14.7544 3.82616 14.7959 3.72164 14.7959H3.38258C3.47477 16.3238 4.73946 17.5353 6.29164 17.5353H7.44883V19.8016H9.18102V19.5063C9.1789 19.4532 9.18753 19.4002 9.20638 19.3506C9.22523 19.3009 9.25392 19.2556 9.29072 19.2173C9.32752 19.179 9.37168 19.1485 9.42054 19.1277C9.4694 19.1069 9.52197 19.0962 9.57508 19.0962C9.62819 19.0962 9.68076 19.1069 9.72962 19.1277C9.77848 19.1485 9.82264 19.179 9.85944 19.2173C9.89624 19.2556 9.92493 19.3009 9.94378 19.3506C9.96263 19.4002 9.97126 19.4532 9.96914 19.5063V19.8016H10.6776V19.5069C10.6755 19.4538 10.6841 19.4009 10.7029 19.3512C10.7218 19.3016 10.7505 19.2562 10.7873 19.2179C10.8241 19.1796 10.8682 19.1492 10.9171 19.1283C10.966 19.1075 11.0185 19.0968 11.0716 19.0968C11.1248 19.0968 11.1773 19.1075 11.2262 19.1283C11.275 19.1492 11.3192 19.1796 11.356 19.2179C11.3928 19.2562 11.4215 19.3016 11.4403 19.3512C11.4592 19.4009 11.4678 19.4538 11.4657 19.5069V19.8016H15.3441V13.5213C17.0648 12.1678 18.171 10.0634 18.171 7.70344C18.1707 3.6175 14.8607 0.304688 10.7732 0.304688ZM5.19727 7.63625C5.30571 7.63625 5.4131 7.65763 5.51327 7.69917C5.61345 7.74071 5.70445 7.80159 5.78107 7.87833C5.8577 7.95507 5.91844 8.04616 5.95983 8.1464C6.00121 8.24664 6.02243 8.35405 6.02227 8.4625C6.02235 8.57089 6.00107 8.67824 5.95965 8.77841C5.91822 8.87857 5.85747 8.96959 5.78085 9.04627C5.70424 9.12294 5.61326 9.18377 5.51313 9.22527C5.41299 9.26677 5.30566 9.28813 5.19727 9.28813C4.97822 9.28813 4.76814 9.20111 4.61324 9.04621C4.45835 8.89132 4.37133 8.68124 4.37133 8.46219C4.37133 8.24314 4.45835 8.03306 4.61324 7.87816C4.76814 7.72327 4.97822 7.63625 5.19727 7.63625ZM4.28977 11.4747C4.27544 11.425 4.27105 11.3729 4.27685 11.3215C4.28265 11.2701 4.29853 11.2203 4.32358 11.175C4.34862 11.1298 4.38235 11.0899 4.42282 11.0576C4.46329 11.0254 4.50972 11.0015 4.55946 10.9872C4.8757 10.8972 5.20069 10.8415 5.52883 10.8209C5.58058 10.817 5.63258 10.8235 5.68181 10.8399C5.73104 10.8563 5.7765 10.8824 5.81554 10.9166C5.85458 10.9507 5.88642 10.9924 5.9092 11.039C5.93198 11.0856 5.94524 11.1363 5.94821 11.1881C5.95173 11.2398 5.94503 11.2916 5.92849 11.3407C5.91195 11.3898 5.8859 11.4351 5.85182 11.4741C5.81774 11.513 5.77631 11.5449 5.72989 11.5679C5.68348 11.5908 5.633 11.6044 5.58133 11.6078C5.30942 11.6243 5.04013 11.6704 4.77821 11.7453C4.67759 11.7739 4.56976 11.7615 4.47829 11.7107C4.38682 11.66 4.31915 11.5752 4.29008 11.4747H4.28977ZM5.80508 14.7956H4.90383C4.79932 14.7956 4.69909 14.7541 4.62519 14.6802C4.55129 14.6063 4.50977 14.5061 4.50977 14.4016C4.50977 14.2971 4.55129 14.1968 4.62519 14.1229C4.69909 14.049 4.79932 14.0075 4.90383 14.0075H5.80508C5.90959 14.0075 6.00982 14.049 6.08373 14.1229C6.15763 14.1968 6.19914 14.2971 6.19914 14.4016C6.19914 14.5061 6.15763 14.6063 6.08373 14.6802C6.00982 14.7541 5.90959 14.7956 5.80508 14.7956ZM10.9473 9.36063H11.8485C11.953 9.36063 12.0533 9.40214 12.1272 9.47604C12.2011 9.54995 12.2426 9.65018 12.2426 9.75469C12.2426 9.8592 12.2011 9.95943 12.1272 10.0333C12.0533 10.1072 11.953 10.1488 11.8485 10.1488H10.9473C10.8428 10.1488 10.7425 10.1072 10.6686 10.0333C10.5947 9.95943 10.5532 9.8592 10.5532 9.75469C10.5532 9.65018 10.5947 9.54995 10.6686 9.47604C10.7425 9.40214 10.8428 9.36063 10.9473 9.36063ZM8.81258 10.3994C8.99321 10.075 9.27227 9.80813 9.62008 9.62969C9.71233 9.5871 9.81747 9.58175 9.91356 9.61478C10.0097 9.6478 10.0893 9.71664 10.1359 9.80695C10.1825 9.89725 10.1924 10.0021 10.1636 10.0995C10.1348 10.1969 10.0695 10.2795 9.98133 10.33C9.77258 10.4381 9.60664 10.5944 9.50133 10.7831C9.47623 10.8284 9.44245 10.8683 9.40192 10.9005C9.36138 10.9327 9.3149 10.9566 9.26512 10.9708C9.21534 10.9851 9.16324 10.9893 9.11181 10.9834C9.06038 10.9775 9.01063 10.9614 8.96539 10.9363C8.87399 10.8853 8.80656 10.8001 8.77791 10.6994C8.74926 10.5988 8.76173 10.4909 8.81258 10.3994ZM6.34289 11.2084C6.35116 11.1573 6.36946 11.1082 6.39673 11.0641C6.42401 11.02 6.45972 10.9818 6.50182 10.9515C6.54392 10.9213 6.59158 10.8996 6.64207 10.8878C6.69256 10.876 6.74487 10.8743 6.79602 10.8828C7.11517 10.9351 7.4291 11.0154 7.73414 11.1228C7.78297 11.1399 7.82795 11.1665 7.86651 11.201C7.90507 11.2355 7.93644 11.2773 7.95885 11.3239C7.98126 11.3705 7.99425 11.4211 7.99709 11.4728C7.99993 11.5245 7.99255 11.5762 7.97539 11.625C7.95831 11.6739 7.93177 11.7189 7.89728 11.7575C7.86279 11.7961 7.82102 11.8275 7.77438 11.8499C7.72774 11.8723 7.67713 11.8854 7.62545 11.8882C7.57377 11.8911 7.52204 11.8837 7.47321 11.8666C7.21131 11.7753 6.94211 11.7065 6.66852 11.6609C6.6174 11.6527 6.56842 11.6344 6.52437 11.6072C6.48033 11.5799 6.44208 11.5443 6.41184 11.5022C6.38159 11.4602 6.35993 11.4126 6.3481 11.3622C6.33627 11.3118 6.3345 11.2595 6.34289 11.2084ZM8.17102 14.9675C8.12093 15.0592 8.03657 15.1274 7.93637 15.1571C7.83618 15.1868 7.7283 15.1756 7.63633 15.1259C7.4058 15.0013 7.15829 14.9111 6.90164 14.8581C6.85096 14.8476 6.80285 14.8272 6.76005 14.7981C6.71726 14.769 6.68062 14.7317 6.65222 14.6884C6.62383 14.6451 6.60424 14.5967 6.59457 14.5458C6.58489 14.495 6.58534 14.4427 6.59586 14.392C6.60639 14.3414 6.62679 14.2932 6.65591 14.2504C6.68503 14.2076 6.7223 14.171 6.76558 14.1426C6.80886 14.1142 6.85731 14.0946 6.90816 14.085C6.95901 14.0753 7.01127 14.0757 7.06196 14.0863C7.39821 14.1566 7.71852 14.2731 8.01227 14.4328C8.20383 14.5372 8.27446 14.7766 8.17071 14.9672L8.17102 14.9675ZM8.33258 11.7981C8.40946 11.6775 8.54164 11.6194 8.67508 11.6222C8.71477 11.4969 8.81039 11.3909 8.94727 11.3559C8.99744 11.3431 9.04965 11.3403 9.10092 11.3476C9.15218 11.355 9.20149 11.3724 9.24602 11.3988C9.29055 11.4253 9.32942 11.4602 9.36042 11.5017C9.39141 11.5432 9.41392 11.5904 9.42664 11.6406C9.52508 12.0263 9.72539 12.3584 9.72727 12.3619C9.77805 12.444 9.79691 12.542 9.78024 12.6371C9.76358 12.7322 9.71256 12.8179 9.63687 12.8779C9.56119 12.9379 9.46611 12.968 9.36969 12.9625C9.27326 12.957 9.18222 12.9163 9.11383 12.8481C8.90853 12.661 8.68751 12.4918 8.45321 12.3425C8.40953 12.3147 8.37176 12.2786 8.34206 12.2362C8.31235 12.1938 8.2913 12.146 8.28009 12.0955C8.26889 12.0449 8.26776 11.9927 8.27676 11.9417C8.28577 11.8908 8.30474 11.8418 8.33258 11.7981ZM8.84164 16.4569C8.7322 16.214 8.59153 15.9865 8.42321 15.78C8.39033 15.74 8.36566 15.6939 8.35061 15.6444C8.33557 15.5949 8.33044 15.5428 8.33551 15.4913C8.34059 15.4398 8.35578 15.3898 8.38022 15.3441C8.40465 15.2985 8.43784 15.2581 8.47789 15.2253C8.51788 15.1924 8.56397 15.1678 8.6135 15.1527C8.66304 15.1377 8.71506 15.1325 8.76658 15.1376C8.8181 15.1427 8.86811 15.1579 8.91376 15.1823C8.9594 15.2068 8.99978 15.2399 9.03258 15.28C9.24425 15.5392 9.42116 15.825 9.55883 16.13C9.58643 16.19 9.59848 16.2559 9.59389 16.3217C9.5893 16.3876 9.56821 16.4512 9.53256 16.5067C9.49692 16.5623 9.44786 16.6079 9.38992 16.6395C9.33198 16.6711 9.26701 16.6876 9.20102 16.6875C9.12533 16.6873 9.05128 16.6654 8.98761 16.6245C8.92393 16.5836 8.87329 16.5256 8.84164 16.4569ZM9.96914 18.3234C9.96914 18.428 9.92763 18.5282 9.85372 18.6021C9.77982 18.676 9.67959 18.7175 9.57508 18.7175C9.47057 18.7175 9.37034 18.676 9.29644 18.6021C9.22254 18.5282 9.18102 18.428 9.18102 18.3234V18.1031C9.18102 17.8922 9.16602 17.6834 9.13727 17.4819C9.12243 17.3783 9.14922 17.2732 9.21177 17.1893C9.27433 17.1055 9.36755 17.0499 9.47102 17.0347C9.52231 17.0271 9.57461 17.0297 9.62489 17.0424C9.67517 17.0551 9.72242 17.0777 9.76392 17.1087C9.80543 17.1398 9.84035 17.1789 9.86667 17.2235C9.89299 17.2682 9.91019 17.3177 9.91727 17.3691C9.95227 17.6075 9.96914 17.8544 9.96914 18.1031V18.3234ZM10.2423 14.3913C10.1264 14.1389 9.98882 13.8972 9.83102 13.6688C9.77524 13.5827 9.75518 13.4783 9.77509 13.3777C9.79499 13.2771 9.8533 13.1882 9.93764 13.1299C10.022 13.0716 10.1257 13.0484 10.2269 13.0653C10.328 13.0821 10.4186 13.1378 10.4795 13.2203C10.6629 13.4859 10.8245 13.7691 10.9588 14.0622C11.0025 14.1572 11.0067 14.2657 10.9703 14.3638C10.934 14.4618 10.8603 14.5415 10.7652 14.5852C10.6702 14.6288 10.5617 14.633 10.4637 14.5967C10.3656 14.5604 10.2859 14.4863 10.2423 14.3913ZM10.6757 16.2522C10.6683 15.9748 10.6367 15.6985 10.5813 15.4266C10.571 15.3758 10.5708 15.3236 10.5807 15.2728C10.5906 15.222 10.6104 15.1736 10.639 15.1305C10.6676 15.0873 10.7044 15.0502 10.7473 15.0213C10.7902 14.9924 10.8384 14.9722 10.8891 14.9619C10.9399 14.9516 10.9921 14.9514 11.0429 14.9613C11.0937 14.9712 11.1421 14.991 11.1852 15.0195C11.2284 15.0481 11.2655 15.0849 11.2944 15.1278C11.3233 15.1708 11.3435 15.219 11.3538 15.2697C11.4179 15.585 11.4551 15.9088 11.4638 16.2309C11.4667 16.3353 11.428 16.4365 11.3563 16.5123C11.2846 16.5881 11.1857 16.6324 11.0813 16.6353C11.0776 16.6359 11.0737 16.6361 11.0698 16.6359C10.8576 16.6359 10.6823 16.4659 10.676 16.2525L10.6757 16.2522ZM11.4657 18.3244C11.4657 18.4289 11.4242 18.5291 11.3503 18.603C11.2764 18.6769 11.1762 18.7184 11.0716 18.7184C10.9671 18.7184 10.8669 18.6769 10.793 18.603C10.7191 18.5291 10.6776 18.4289 10.6776 18.3244V17.4241C10.6755 17.371 10.6841 17.318 10.7029 17.2684C10.7218 17.2187 10.7505 17.1734 10.7873 17.1351C10.8241 17.0968 10.8682 17.0663 10.9171 17.0455C10.966 17.0247 11.0185 17.014 11.0716 17.014C11.1248 17.014 11.1773 17.0247 11.2262 17.0455C11.275 17.0663 11.3192 17.0968 11.356 17.1351C11.3928 17.1734 11.4215 17.2187 11.4403 17.2684C11.4592 17.318 11.4678 17.371 11.4657 17.4241V18.3244ZM11.682 11.9438V11.2722L11.812 11.2709C12.2152 11.2696 12.6015 11.1091 12.887 10.8243C13.1724 10.5395 13.3338 10.1535 13.336 9.75031C13.3338 9.34711 13.1724 8.9611 12.887 8.67631C12.6015 8.39152 12.2152 8.231 11.812 8.22969L11.682 8.22906V7.55844H11.8129C13.0235 7.55844 14.0082 8.54125 14.0082 9.75063C14.0082 10.96 13.0235 11.9441 11.8129 11.9441L11.682 11.9438Z" fill="#F36A26"/>
</svg>
