<svg width="24" height="24" viewBox="0 0 24 24" fill="none" xmlns="http://www.w3.org/2000/svg">
<path fill-rule="evenodd" clip-rule="evenodd" d="M6.5435 3.423C7.0935 3.086 7.7205 3 8.2785 3H19.5C19.8978 3 20.2794 3.15804 20.5607 3.43934C20.842 3.72064 21 4.10218 21 4.5V13C21 15.355 18.73 17 16.5 17C14.27 17 12 15.355 12 13V8.57C11.6879 8.65397 11.3942 8.79539 11.134 8.987C10.7165 9.297 10.5 9.665 10.5 10V14.5C10.878 14.6785 11.1565 14.9135 11.3205 15.255C11.5005 15.629 11.5005 16.0685 11.5005 16.4595V16.4995C11.5005 17.5945 11.06 18.7055 10.3585 19.545C9.7605 20.261 8.942 20.8135 8 20.961V8C8 7.46957 8.21071 6.96086 8.58579 6.58579C8.96086 6.21071 9.46957 6 10 6H17.5V5H10C9.20435 5 8.44129 5.31607 7.87868 5.87868C7.31607 6.44129 7 7.20435 7 8V20.961C6.058 20.8135 5.2395 20.261 4.6415 19.545C3.94 18.7055 3.5 17.594 3.5 16.5V16.4595C3.5 16.0685 3.5 15.6295 3.6795 15.2545C3.8435 14.9135 4.122 14.6785 4.5 14.4995V7C4.5 5.408 5.326 4.1695 6.5435 3.423Z" fill="#F36A26"/>
</svg>
