<svg width="17" height="17" viewBox="0 0 17 17" fill="none" xmlns="http://www.w3.org/2000/svg">
<path d="M8.12708 10.2538L5.55938 7.68607C5.52396 7.65065 5.49751 7.6124 5.48004 7.57132C5.46257 7.53023 5.4536 7.48585 5.45312 7.43815C5.45312 7.34371 5.48571 7.26107 5.55088 7.19023C5.61604 7.1194 5.70151 7.08398 5.80729 7.08398H11.1906C11.2969 7.08398 11.3826 7.1194 11.4478 7.19023C11.5129 7.26107 11.5453 7.34371 11.5448 7.43815C11.5448 7.46176 11.5094 7.5444 11.4385 7.68607L8.87083 10.2538C8.81181 10.3128 8.75278 10.3541 8.69375 10.3777C8.63472 10.4013 8.56979 10.4132 8.49896 10.4132C8.42813 10.4132 8.3632 10.4013 8.30417 10.3777C8.24514 10.3541 8.18611 10.3128 8.12708 10.2538Z" fill="white"/>
</svg>
