<svg width="24" height="25" viewBox="0 0 24 25" fill="none" xmlns="http://www.w3.org/2000/svg">
<path d="M12 20.5C14.1217 20.5 16.1566 19.6571 17.6569 18.1569C19.1571 16.6566 20 14.6217 20 12.5C20 10.3783 19.1571 8.34344 17.6569 6.84315C16.1566 5.34285 14.1217 4.5 12 4.5C9.87827 4.5 7.84344 5.34285 6.34315 6.84315C4.84285 8.34344 4 10.3783 4 12.5C4 14.6217 4.84285 16.6566 6.34315 18.1569C7.84344 19.6571 9.87827 20.5 12 20.5ZM12 2.5C13.3132 2.5 14.6136 2.75866 15.8268 3.2612C17.0401 3.76375 18.1425 4.50035 19.0711 5.42893C19.9997 6.35752 20.7362 7.45991 21.2388 8.67317C21.7413 9.88642 22 11.1868 22 12.5C22 15.1522 20.9464 17.6957 19.0711 19.5711C17.1957 21.4464 14.6522 22.5 12 22.5C6.47 22.5 2 18 2 12.5C2 9.84784 3.05357 7.3043 4.92893 5.42893C6.8043 3.55357 9.34784 2.5 12 2.5ZM12.5 7.5V12.75L17 15.42L16.25 16.65L11 13.5V7.5H12.5Z" fill="#FFFDFA"/>
</svg>
