<svg width="27" height="28" viewBox="0 0 27 28" fill="none" xmlns="http://www.w3.org/2000/svg">
<path d="M21.9637 24.0251L14.946 17.0074C14.389 17.453 13.7485 17.8057 13.0245 18.0656C12.3004 18.3256 11.53 18.4555 10.7131 18.4555C8.6895 18.4555 6.97704 17.7545 5.57573 16.3524C4.17442 14.9504 3.4734 13.2379 3.47266 11.2151C3.47191 9.19219 4.17294 7.47973 5.57573 6.07768C6.97852 4.67563 8.69098 3.97461 10.7131 3.97461C12.7352 3.97461 14.4481 4.67563 15.8516 6.07768C17.2551 7.47973 17.9558 9.19219 17.9536 11.2151C17.9536 12.0319 17.8236 12.8024 17.5637 13.5264C17.3038 14.2505 16.951 14.891 16.5055 15.4479L23.5231 22.4656L21.9637 24.0251ZM10.7131 16.2277C12.1055 16.2277 13.2892 15.7405 14.2643 14.7662C15.2393 13.7919 15.7265 12.6082 15.7257 11.2151C15.725 9.82193 15.2378 8.63858 14.2643 7.66501C13.2907 6.69145 12.107 6.20393 10.7131 6.20244C9.31923 6.20096 8.13588 6.68848 7.16306 7.66501C6.19024 8.64155 5.70272 9.8249 5.70049 11.2151C5.69826 12.6052 6.18578 13.789 7.16306 14.7662C8.14034 15.7435 9.32369 16.2307 10.7131 16.2277Z" fill="white"/>
</svg>
