<svg width="24" height="24" viewBox="0 0 24 24" fill="none" xmlns="http://www.w3.org/2000/svg">
<path fill-rule="evenodd" clip-rule="evenodd" d="M12.6003 5.615C12.6003 7.059 11.4328 8.23 9.99284 8.23C8.55284 8.23 7.38484 7.059 7.38484 5.615C7.38484 4.171 8.55284 3 9.99334 3C11.4338 3 12.6003 4.171 12.6003 5.615ZM4.10234 7.5695L4.10734 7.58C4.89034 9.262 5.80234 10.186 6.86084 10.647L7.38534 10.8755V12.75H12.6148V10.875L13.1388 10.6465C14.1973 10.1855 15.1093 9.2615 15.8923 7.5795L15.8973 7.569L15.9023 7.5585C15.9423 7.4785 16.0053 7.285 15.9993 7.0685C15.9943 6.873 15.9363 6.6895 15.7753 6.528C15.5678 6.32 15.4013 6.274 15.2773 6.266C15.1303 6.257 14.9513 6.299 14.7443 6.402C14.7393 6.405 14.7043 6.4275 14.6343 6.4955C14.5327 6.59813 14.4361 6.70558 14.3448 6.8175L14.1898 7.0055C13.9574 7.2958 13.713 7.57638 13.4573 7.8465C12.7123 8.615 11.6298 9.406 9.99984 9.406C8.36984 9.406 7.28734 8.615 6.54234 7.8465C6.2867 7.57654 6.04233 7.29613 5.80984 7.006C5.7545 6.93767 5.70284 6.87483 5.65484 6.8175C5.56356 6.70558 5.46695 6.59813 5.36534 6.4955C5.29534 6.4275 5.26034 6.4055 5.25534 6.402C5.04884 6.2995 4.86934 6.257 4.72234 6.266C4.59834 6.274 4.43234 6.32 4.22434 6.528C4.06334 6.6895 4.00534 6.873 4.00034 7.069C3.99484 7.285 4.05784 7.479 4.09734 7.5585L4.10234 7.5695ZM7.38534 14.362V13.75H12.6148V14.362C12.6148 14.6805 12.3163 15.497 11.4008 15.889C11.2958 15.934 11.1783 15.99 11.0728 16.0405L11.0103 16.0705C10.8803 16.132 10.7548 16.1905 10.6273 16.242C10.3623 16.35 10.1548 16.402 9.99984 16.402C9.84484 16.402 9.63784 16.35 9.37234 16.242C9.24484 16.19 9.11934 16.132 8.98934 16.07L8.92684 16.04C8.82134 15.99 8.70334 15.934 8.59884 15.889C7.68384 15.4975 7.38534 14.6805 7.38534 14.362ZM7.18384 15.6905C7.43128 16.218 7.8542 16.6432 8.38034 16.8935C8.21536 17.0289 8.07439 17.1912 7.96334 17.3735C7.71334 17.781 7.49834 18.2845 7.49834 18.7585C7.49834 19.192 7.66084 19.565 7.78334 19.8475L7.79284 19.8685C7.92884 20.1805 8.01434 20.3905 8.01434 20.6125C8.01434 21.112 7.62234 21.5 7.15934 21.5C6.72734 21.5 6.38584 21.185 6.13134 20.576C5.88284 19.9815 5.78734 19.2475 5.78734 18.7585C5.78734 17.4345 6.28584 16.4565 7.18384 15.6905ZM12.8158 15.6905C12.5684 16.218 12.1455 16.6432 11.6193 16.8935C11.7678 17.0175 11.9083 17.1645 12.0363 17.3735C12.2863 17.781 12.5013 18.2845 12.5013 18.7585C12.5013 19.192 12.3388 19.565 12.2163 19.8475L12.2068 19.8685C12.0708 20.1805 11.9848 20.3905 11.9848 20.6125C11.9848 21.112 12.3773 21.5 12.8403 21.5C13.2723 21.5 13.6138 21.185 13.8683 20.576C14.1168 19.9815 14.2123 19.2475 14.2123 18.7585C14.2123 17.4345 13.7138 16.4565 12.8158 15.6905ZM17.4998 19V15.5C17.4998 15.2348 17.6052 14.9804 17.7927 14.7929C17.9803 14.6054 18.2346 14.5 18.4998 14.5C19.0523 14.5 19.5088 14.951 19.4233 15.497C19.0568 17.832 17.4998 19 17.4998 19ZM18.9998 13.25C18.9998 13.4162 18.9446 13.5777 18.8428 13.7092C18.741 13.8406 18.5985 13.9345 18.4376 13.9761C18.2766 14.0177 18.1064 14.0047 17.9537 13.939C17.801 13.8734 17.6744 13.7589 17.5938 13.6135L18.9998 12.207V13.25ZM18.9998 10.793L17.4998 12.293V11.207L18.9998 9.707V10.793ZM18.9998 8.293L17.4998 9.793V6.25C17.4998 6.05109 17.5789 5.86032 17.7195 5.71967C17.8602 5.57902 18.0509 5.5 18.2498 5.5C18.4487 5.5 18.6395 5.57902 18.7802 5.71967C18.9208 5.86032 18.9998 6.05109 18.9998 6.25V8.293Z" fill="#F36A26"/>
</svg>
