<svg width="24" height="24" viewBox="0 0 24 24" fill="none" xmlns="http://www.w3.org/2000/svg">
<path fill-rule="evenodd" clip-rule="evenodd" d="M9.00047 4.99931C9.00047 4.59331 9.15247 4.25231 9.35647 4.11531C9.50647 4.01531 10.0695 3.77931 11.5465 4.53131C11.7827 4.65117 12.0569 4.6724 12.3088 4.59032C12.5606 4.50824 12.7697 4.32957 12.8899 4.09353C13.0102 3.85748 13.0319 3.58336 12.9503 3.33134C12.8686 3.07932 12.6903 2.86999 12.4545 2.74931C10.7315 1.87231 9.29447 1.74931 8.24447 2.45331C7.24847 3.12031 7.00047 4.27331 7.00047 4.99931H5.00047C4.44847 4.99931 3.99247 5.44931 4.08147 5.99531C4.17768 6.5783 4.35542 7.14485 4.60947 7.67831C5.01147 8.52831 5.60047 9.29831 6.34347 9.94831C7.10783 10.61 7.98796 11.1247 8.93947 11.4663C9.59947 11.7063 10.2935 11.8663 11.0005 11.9443V14.9993H13.0005V11.9443C13.6591 11.8716 14.3077 11.7264 14.9345 11.5113C14.8669 11.7662 14.7496 12.0052 14.5893 12.2146C14.429 12.424 14.2289 12.5996 14.0005 12.7313V14.8733C15.7255 14.4293 17.0005 12.8633 17.0005 10.9993C17.0006 10.8396 16.9626 10.6823 16.8895 10.5403C17.1595 10.3576 17.4155 10.1606 17.6575 9.94931C18.3855 9.31958 18.9758 8.54648 19.3915 7.67831C19.6443 7.14437 19.822 6.57799 19.9195 5.99531C20.0095 5.44931 19.5525 4.99931 19.0005 4.99931H9.00047ZM7.66047 8.44431C7.1906 8.03708 6.79917 7.54736 6.50547 6.99931H17.4955C17.2018 7.54736 16.8103 8.03708 16.3405 8.44431C15.7629 8.94227 15.0985 9.32942 14.3805 9.58631C13.6183 9.8604 12.8144 10.0001 12.0045 9.99931H11.9965C11.1765 9.99931 10.3675 9.85731 9.62047 9.58631C8.90247 9.32942 8.23801 8.94227 7.66047 8.44431Z" fill="#F36A26"/>
<path d="M7 20H11C11 19.7861 11.0685 19.5778 11.1956 19.4057C11.3227 19.2337 11.5015 19.1069 11.706 19.044L13.889 18.316C13.9257 18.304 13.9569 18.2793 13.977 18.2463C13.9971 18.2134 14.0048 18.1743 13.9987 18.1362C13.9925 18.0981 13.9729 18.0634 13.9435 18.0384C13.914 18.0135 13.8766 17.9998 13.838 18H9.5C8.83696 18 8.20107 17.7366 7.73223 17.2678C7.26339 16.7989 7 16.163 7 15.5C7 14.837 7.26339 14.2011 7.73223 13.7322C8.20107 13.2634 8.83696 13 9.5 13H10V15H9.5C9.36739 15 9.24021 15.0527 9.14645 15.1464C9.05268 15.2402 9 15.3674 9 15.5C9 15.6326 9.05268 15.7598 9.14645 15.8536C9.24021 15.9473 9.36739 16 9.5 16H13.838C14.3083 15.9997 14.766 16.1527 15.1415 16.4359C15.517 16.7191 15.7899 17.1171 15.9188 17.5694C16.0477 18.0218 16.0256 18.5038 15.8558 18.9424C15.686 19.381 15.3779 19.7523 14.978 20H17V22H7V20Z" fill="#F36A26"/>
</svg>
