<svg width="19" height="19" viewBox="0 0 19 19" fill="none" xmlns="http://www.w3.org/2000/svg">
<path d="M3.99382 0.953323C3.83499 0.95644 3.66878 0.996852 3.49455 1.08732C1.98527 1.90948 0.941833 3.61659 2.22842 5.16175C1.67237 5.8797 1.4781 6.48258 1.8758 7.14209C1.2481 7.74159 1.406 8.34106 1.88567 8.94052C1.47651 9.47935 1.69174 9.74064 1.89154 10.0088C1.45643 10.5079 0.489247 12.0212 1.58947 12.615C1.05183 13.3091 1.41758 15.6155 3.41324 15.1773C3.74842 16.1537 4.99644 16.1609 5.75173 15.3617C6.14182 15.3443 6.70726 15.2002 7.43171 14.9085C7.09984 14.75 6.63371 14.5286 6.24951 14.3464C6.05743 12.8301 5.1697 12.8552 4.42228 12.5084C4.88556 11.9607 4.83409 11.413 4.4644 10.8653C5.25435 9.871 5.1258 9.06046 4.52912 8.34351C5.02219 7.61442 4.84195 6.94652 4.58182 6.2859C4.83286 5.50431 5.19423 4.73187 4.64342 3.88344C5.30534 4.85556 5.85552 5.5547 6.68369 5.24547C7.75259 5.99853 8.66582 6.37545 9.64443 5.91191C10.4343 6.48047 11.1734 6.1761 12.1708 5.3618C13.1425 6.18107 13.9076 5.25441 14.5811 4.32467C14.3535 5.30763 14.4146 6.21502 15.0295 6.65191C13.7144 7.48984 14.0957 8.12664 14.7514 8.46979C13.6659 9.6453 14.6904 10.3277 15.512 10.9342C14.9405 11.6948 15.2017 12.0582 15.5991 12.6349C14.9741 12.4358 14.5053 13.0484 14.3255 13.4979C13.6815 13.2129 12.7551 13.2255 12.1798 13.4901C11.4547 13.1625 10.999 13.2644 10.4211 13.8195C9.77294 13.6463 9.1249 13.3879 8.47678 14.0196C7.44165 15.7848 8.63346 21.089 10.6515 16.4155C11.6841 17.0091 12.5166 16.5969 12.8264 16.2351C13.8556 16.5673 14.947 16.9543 15.22 16.2553C15.8148 16.4786 18.9044 16.934 17.868 14.2183C18.2412 13.4306 18.2853 12.7027 17.8944 12.054C18.3324 11.4883 18.4902 10.7513 17.944 10.0692C18.7699 9.04777 18.0882 8.05101 17.5045 7.53263C17.9826 6.85713 18.1516 6.59866 17.6595 6.05345C17.8377 5.59875 17.6083 4.70237 17.1818 4.32883C18.0625 2.8282 17.5363 0.809041 15.2489 1.64077C14.3617 0.907122 12.6701 1.96697 12.6618 2.70418C11.3344 2.38493 10.7334 2.49681 10.3524 3.24423C9.45131 2.34953 8.56354 2.64076 7.76165 3.1053C7.14311 2.37806 7.12181 1.75804 5.70668 1.96411C5.23268 1.62567 4.68205 0.939778 3.99382 0.953323Z" fill="#F36A26"/>
</svg>
