<svg width="24" height="24" viewBox="0 0 24 24" fill="none" xmlns="http://www.w3.org/2000/svg">
<path d="M13 4.5C13 5.16304 12.7366 5.79893 12.2678 6.26777C11.7989 6.73661 11.163 7 10.5 7C9.83696 7 9.20107 6.73661 8.73223 6.26777C8.26339 5.79893 8 5.16304 8 4.5C8 3.83696 8.26339 3.20107 8.73223 2.73223C9.20107 2.26339 9.83696 2 10.5 2C11.163 2 11.7989 2.26339 12.2678 2.73223C12.7366 3.20107 13 3.83696 13 4.5Z" fill="#F36A26"/>
<path fill-rule="evenodd" clip-rule="evenodd" d="M16.196 12.48C15.936 12.5321 15.6659 12.4788 15.4451 12.3318C15.2244 12.1847 15.0711 11.956 15.019 11.696C14.849 10.846 14.39 10.469 13.789 10.254C13.6942 10.2198 13.5978 10.1905 13.5 10.166V20.93C13.4995 21.2006 13.3965 21.4609 13.2119 21.6587C13.0273 21.8565 12.7746 21.9771 12.5047 21.9962C12.2348 22.0154 11.9677 21.9316 11.757 21.7618C11.5463 21.592 11.4077 21.3488 11.369 21.081L10.643 16H10.357L9.631 21.08C9.59234 21.3477 9.45381 21.5909 9.24323 21.7607C9.03265 21.9305 8.76563 22.0143 8.49579 21.9953C8.22596 21.9763 7.97331 21.8559 7.7886 21.6583C7.60388 21.4607 7.50078 21.2005 7.5 20.93V15C6.57174 15 5.6815 14.6313 5.02513 13.9749C4.36875 13.3185 4 12.4283 4 11.5C4 10.5717 4.36875 9.6815 5.02513 9.02513C5.6815 8.36875 6.57174 8 7.5 8H12V8.002C12.702 8.012 13.617 8.069 14.461 8.371C15.61 8.781 16.651 9.654 16.981 11.304C17.0068 11.4328 17.0069 11.5655 16.9814 11.6944C16.9559 11.8233 16.9053 11.9459 16.8324 12.0552C16.7595 12.1645 16.6658 12.2583 16.5566 12.3314C16.4474 12.4045 16.3248 12.4553 16.196 12.481M7.5 10C7.10218 10 6.72064 10.158 6.43934 10.4393C6.15804 10.7206 6 11.1022 6 11.5C6 11.8978 6.15804 12.2794 6.43934 12.5607C6.72064 12.842 7.10218 13 7.5 13V10Z" fill="#F36A26"/>
<path d="M17.0002 14.4C17.0002 14.177 17.0872 14.035 17.2132 13.934C17.3676 13.8163 17.556 13.7518 17.7502 13.75C17.9372 13.75 18.1422 13.817 18.2872 13.934C18.3572 13.9891 18.4131 14.0602 18.4501 14.1412C18.4871 14.2223 18.5043 14.311 18.5002 14.4V21C18.5002 21.1989 18.5792 21.3897 18.7198 21.5303C18.8605 21.671 19.0513 21.75 19.2502 21.75C19.4491 21.75 19.6399 21.671 19.7805 21.5303C19.9212 21.3897 20.0002 21.1989 20.0002 21V14.4C20.0002 13.69 19.6802 13.131 19.2292 12.766C18.8078 12.4334 18.287 12.2517 17.7502 12.25C17.2502 12.25 16.7052 12.416 16.2712 12.766C16.0269 12.9619 15.8306 13.2108 15.697 13.494C15.5634 13.7771 15.4961 14.087 15.5002 14.4C15.5002 14.5989 15.5792 14.7897 15.7198 14.9303C15.8605 15.071 16.0513 15.15 16.2502 15.15C16.4491 15.15 16.6399 15.071 16.7805 14.9303C16.9212 14.7897 17.0002 14.5989 17.0002 14.4Z" fill="#F36A26"/>
</svg>
