<svg width="24" height="24" viewBox="0 0 24 24" fill="none" xmlns="http://www.w3.org/2000/svg">
<path d="M11.3585 5.69922C11.3335 5.69922 11.3085 5.70972 11.291 5.72872C11.1783 5.84945 11.1137 6.00732 11.1096 6.17245C11.1054 6.33757 11.162 6.49848 11.2685 6.62472L11.9985 7.47672L12.7285 6.62472C12.8351 6.49854 12.8917 6.33766 12.8877 6.17254C12.8836 6.00742 12.8192 5.84951 12.7065 5.72872C12.6885 5.71054 12.6641 5.69998 12.6385 5.69922H11.3585Z" fill="#F36A26"/>
<path fill-rule="evenodd" clip-rule="evenodd" d="M18.6475 3H5.35251C3.78952 6.924 2.99602 10.053 3.00002 12.926C3.00402 15.733 3.76901 18.256 5.25201 21H18.748C20.231 18.2555 20.996 15.733 21 12.926C21.004 10.053 20.2105 6.924 18.6475 3ZM12.5765 8.15L13.3675 7.2275C13.8925 6.6145 13.8695 5.6765 13.314 5.093C13.2275 5.00094 13.1231 4.92747 13.0072 4.8771C12.8913 4.82672 12.7664 4.80049 12.64 4.8H11.36C11.1075 4.8 10.865 4.905 10.6865 5.093C10.1305 5.6765 10.1075 6.6145 10.633 7.228L11.4235 8.15L9.53852 10.349L10.1755 10.951L12.0005 8.8225L13.8245 10.951L14.4615 10.349L12.5765 8.15ZM12.4285 15.773L15.9395 12.0865L15.3335 11.45L12 14.95L8.66652 11.45L8.06052 12.0865L11.5715 15.773V21H12.4285V15.773Z" fill="#F36A26"/>
</svg>
