<svg width="28" height="28" viewBox="0 0 28 28" fill="none" xmlns="http://www.w3.org/2000/svg">
<path fill-rule="evenodd" clip-rule="evenodd" d="M5.25 3.5C4.78587 3.5 4.34075 3.68437 4.01256 4.01256C3.68437 4.34075 3.5 4.78587 3.5 5.25V22.75C3.5 23.2141 3.68437 23.6592 4.01256 23.9874C4.34075 24.3156 4.78587 24.5 5.25 24.5H22.75C23.2141 24.5 23.6592 24.3156 23.9874 23.9874C24.3156 23.6592 24.5 23.2141 24.5 22.75V5.25C24.5 4.78587 24.3156 4.34075 23.9874 4.01256C23.6592 3.68437 23.2141 3.5 22.75 3.5H5.25ZM19.9926 11.5897L19.5352 11.3697C21.4346 13.1606 20.9504 15.8591 19.7639 17.9112C19.1456 18.9805 18.3021 19.9529 17.3781 20.6634C16.4634 21.3669 15.4134 21.8557 14.3891 21.8557C13.3618 21.8557 12.3369 21.364 11.4543 20.6634C10.563 19.9558 9.76208 18.9939 9.17292 17.9509C8.5855 16.9102 8.18942 15.7518 8.15208 14.6493C8.1305 14.0023 8.23317 13.3659 8.49858 12.7884L8.48108 12.7668C8.40021 12.6702 8.31164 12.5803 8.21625 12.4979C7.97708 12.2914 7.637 12.0797 7.1995 12.0091C7.12248 11.9968 7.04871 11.9692 6.98255 11.9279C6.91639 11.8866 6.85919 11.8324 6.81432 11.7686C6.76945 11.7048 6.73783 11.6327 6.72133 11.5565C6.70483 11.4802 6.70378 11.4015 6.71825 11.3248C6.91367 10.2941 7.08983 9.681 7.22575 9.31467C7.27602 9.1751 7.33686 9.03956 7.40775 8.90925C7.44052 8.8513 7.47818 8.79627 7.52033 8.74475L7.539 8.72433L7.54833 8.715L7.553 8.71033L7.55475 8.70742L7.55592 8.70625C7.55708 8.70625 7.55767 8.70567 7.96658 9.121C8.13108 8.56158 8.13167 8.56158 8.13167 8.56217H8.13283L8.13517 8.56275L8.14333 8.56567L8.17192 8.57383L8.27225 8.6065C8.76099 8.7675 9.23519 8.96967 9.68975 9.21083C10.0167 9.38329 10.3264 9.58642 10.6149 9.8175L10.0106 8.8865C9.92788 8.75902 9.89819 8.60431 9.92783 8.45527C9.95746 8.30624 10.0441 8.17465 10.1693 8.0885L12.0412 6.79933C12.1657 6.71367 12.3185 6.67966 12.4676 6.70447C12.6167 6.72928 12.7503 6.81097 12.8403 6.93233L13.1291 7.32142V6.72758C13.1291 6.57287 13.1905 6.4245 13.2999 6.3151C13.4093 6.20571 13.5577 6.14425 13.7124 6.14425H16.0417C16.1964 6.14425 16.3447 6.20571 16.4541 6.3151C16.5635 6.4245 16.625 6.57287 16.625 6.72758V7.51275L16.66 7.54425C16.7679 7.64342 16.8968 7.77467 17.0345 7.94208C18.0174 7.76883 19.2045 7.86683 20.6191 8.39008L21.1499 8.58667L20.9691 9.12333C20.8396 9.51008 20.6961 9.8175 20.566 10.0963L20.5625 10.1039C20.4301 10.3874 20.3117 10.6429 20.2032 10.9643L19.9926 11.5897ZM7.96658 9.12158L7.55767 8.70567C7.63186 8.63274 7.7242 8.58097 7.82512 8.55574C7.92605 8.53051 8.03189 8.53273 8.13167 8.56217L7.96658 9.12158ZM9.42375 11.585C9.667 11.3867 9.93533 11.2455 10.2153 11.1487L10.2643 11.1247C10.1989 11.0324 10.1247 10.9467 10.0427 10.8687C9.8035 10.6353 9.48092 10.4224 9.1385 10.2392C8.82933 10.0736 8.52017 9.94175 8.27517 9.84667C8.19467 10.0858 8.09025 10.4551 7.97125 11.0122C8.40949 11.1775 8.80785 11.4335 9.14025 11.7635C9.23384 11.7026 9.32836 11.6431 9.42375 11.585ZM10.6593 12.2307C10.4603 12.3317 10.2742 12.4361 10.108 12.5347C9.53575 13.0492 9.28958 13.7626 9.31817 14.6096C9.34733 15.4747 9.66525 16.4494 10.1885 17.3769C10.7106 18.3021 11.417 19.1444 12.1794 19.7493C12.95 20.3607 13.7241 20.6891 14.3891 20.6891C15.0582 20.6891 15.8608 20.3583 16.6664 19.7383C17.4632 19.1263 18.2076 18.2723 18.7542 17.3273C19.8759 15.3872 20.0311 13.3647 18.6579 12.1485C18.5293 12.0307 18.3838 11.9328 18.2262 11.858L18.1061 11.7985C18.0069 11.7495 17.885 11.6906 17.7415 11.613C17.3839 11.7985 16.9779 12.124 16.6133 12.4658C16.3649 12.6992 16.128 12.9445 15.9034 13.2008L15.8947 13.2113L15.8929 13.2137L15.8083 13.3128L15.7646 13.3852L15.0862 15.8194L15.3236 16.3677L16.5597 16.2248L16.6938 17.3833L15.5802 17.5128L15.652 18.564L14.4882 18.6433L14.3856 17.1372L13.8518 15.904L13.8781 15.8089L13.5269 15.9682L13.0346 17.2118L11.9496 16.7831L12.2803 15.9472L11.2397 15.7022L11.5068 14.5664L13.0118 14.9205L14.2864 14.3442L14.6405 13.0731L14.5483 13.0287C14.0696 12.7987 13.5757 12.6017 13.0702 12.439C12.4944 12.2582 11.8988 12.1333 11.3645 12.1357C11.126 12.1329 10.8885 12.1649 10.6593 12.2307ZM15.2629 12.0359L15.3119 11.9729C15.6065 11.592 15.9396 11.2425 16.3059 10.9299C17.0222 10.3279 18.0927 9.73758 19.3112 10.0374C19.3758 9.88964 19.4392 9.75003 19.5014 9.61858L19.5049 9.611C19.5551 9.50367 19.6029 9.401 19.6496 9.296C17.6616 8.71092 16.4185 9.1805 15.6409 9.82392C14.98 10.3705 14.5991 11.0897 14.413 11.5803C14.6986 11.7279 14.9819 11.8798 15.2629 12.0359ZM11.8708 10.2538L11.8819 10.206C11.9349 10.113 11.9614 10.0072 11.9583 9.90021C11.9552 9.79321 11.9227 9.68911 11.8644 9.59933L11.2986 8.72725L12.2395 8.07975L12.8613 8.91683C12.9166 8.99111 12.9887 9.05116 13.0718 9.09203C13.1549 9.13291 13.2465 9.15342 13.339 9.15188C13.4316 9.15034 13.5225 9.1268 13.6041 9.08319C13.6858 9.03957 13.7559 8.97715 13.8087 8.90108L14.1919 8.34867C14.2596 8.251 14.2958 8.13499 14.2957 8.01617V7.31092H15.4583V7.7945C15.4584 7.88849 15.4812 7.98107 15.5248 8.06436C15.5684 8.14764 15.6314 8.21916 15.7086 8.27283C15.2769 8.49625 14.8744 8.82583 14.5372 9.177C14.0367 9.69792 13.5934 10.3542 13.3216 11.0302C12.921 10.9602 12.5149 10.927 12.1082 10.9311C11.9595 10.9311 11.8831 10.9299 11.8119 10.9194C11.8236 10.5595 11.8504 10.3582 11.8708 10.2538Z" fill="#F36A26"/>
</svg>
