<svg width="24" height="24" viewBox="0 0 24 24" fill="none" xmlns="http://www.w3.org/2000/svg">
<path d="M11 15H13L13.15 13.75C13.2833 13.7 13.4043 13.6417 13.513 13.575C13.6217 13.5083 13.7173 13.4333 13.8 13.35L14.95 13.85L15.95 12.15L14.95 11.4C14.9833 11.2667 15 11.1333 15 11C15 10.8667 14.9833 10.7333 14.95 10.6L15.95 9.85L14.95 8.15L13.8 8.65C13.7167 8.56667 13.6207 8.49167 13.512 8.425C13.4033 8.35833 13.2827 8.3 13.15 8.25L13 7H11L10.85 8.25C10.7167 8.3 10.5957 8.35833 10.487 8.425C10.3783 8.49167 10.2827 8.56667 10.2 8.65L9.05 8.15L8.05 9.85L9.05 10.6C9.01667 10.7333 9 10.8667 9 11C9 11.1333 9.01667 11.2667 9.05 11.4L8.05 12.15L9.05 13.85L10.2 13.35C10.2833 13.4333 10.3793 13.5083 10.488 13.575C10.5967 13.6417 10.7173 13.7 10.85 13.75L11 15ZM12 12.5C11.5833 12.5 11.2293 12.3543 10.938 12.063C10.6467 11.7717 10.5007 11.4173 10.5 11C10.4993 10.5827 10.6453 10.2287 10.938 9.938C11.2307 9.64733 11.5847 9.50133 12 9.5C12.4153 9.49867 12.7697 9.64467 13.063 9.938C13.3563 10.2313 13.502 10.5853 13.5 11C13.498 11.4147 13.3523 11.769 13.063 12.063C12.7737 12.357 12.4193 12.5027 12 12.5ZM6 22V17.7C5.05 16.8333 4.31267 15.821 3.788 14.663C3.26333 13.505 3.00067 12.284 3 11C3 8.5 3.875 6.375 5.625 4.625C7.375 2.875 9.5 2 12 2C14.0833 2 15.9293 2.61267 17.538 3.838C19.1467 5.06333 20.1923 6.659 20.675 8.625L21.975 13.75C22.0583 14.0667 22 14.3543 21.8 14.613C21.6 14.8717 21.3333 15.0007 21 15H19V18C19 18.55 18.8043 19.021 18.413 19.413C18.0217 19.805 17.5507 20.0007 17 20H15V22H6Z" fill="#F36A26"/>
</svg>
