<svg width="24" height="24" viewBox="0 0 24 24" fill="none" xmlns="http://www.w3.org/2000/svg">
<path d="M18.9684 21.2322C18.9684 21.5295 18.8503 21.8147 18.64 22.025C18.4297 22.2353 18.1445 22.3534 17.8472 22.3534C17.5498 22.3534 17.2646 22.2353 17.0543 22.025C16.844 21.8147 16.7259 21.5295 16.7259 21.2322V20.2542H18.968L18.9684 21.2322ZM16.01 23.8958H12.8214L12.8263 22.3223H11.7579L11.7564 23.8958H8.56178V20.2542H16.01V23.8958ZM7.82078 21.2322C7.82078 21.5295 7.70267 21.8146 7.49243 22.0249C7.28219 22.2351 6.99704 22.3532 6.69972 22.3532C6.40239 22.3532 6.11725 22.2351 5.90701 22.0249C5.69677 21.8146 5.57866 21.5295 5.57866 21.2322V20.2542H7.82078V21.2322ZM12.2747 0.263672C12.655 0.263721 13.0317 0.338705 13.3831 0.484342C13.7345 0.629978 14.0538 0.843413 14.3227 1.11246C14.5916 1.3815 14.8049 1.70088 14.9503 2.05236C15.0958 2.40384 15.1706 2.78053 15.1704 3.16092C15.1706 3.54129 15.0958 3.91796 14.9504 4.26942C14.805 4.62088 14.5917 4.94024 14.3227 5.20923C14.0538 5.47823 13.7345 5.69159 13.3831 5.83712C13.0317 5.98266 12.655 6.05752 12.2747 6.05742C11.5064 6.05742 10.7695 5.75222 10.2263 5.20895C9.68299 4.66568 9.37778 3.92885 9.37778 3.16055C9.37778 2.39225 9.68299 1.65542 10.2263 1.11215C10.7695 0.568877 11.5064 0.263672 12.2747 0.263672ZM20.5127 19.125H4.03516V9.49542H20.5127V19.125ZM17.939 10.2908H6.67141V18.3428H17.939V10.2908Z" fill="#F36A26"/>
<path d="M12.8186 15.0497V15.7566H14.8822C14.9681 15.7566 15.0941 15.8339 15.0941 15.9674C15.0941 17.1711 14.9434 17.7381 14.3092 17.7381C13.6515 17.7381 13.5165 16.3142 12.8186 16.2205V17.5832H11.7158V16.2179C10.9834 16.2734 10.8653 17.7381 10.1816 17.7381C9.54788 17.7381 9.43125 17.1711 9.43125 15.9674C9.43125 15.8339 9.55763 15.7566 9.64313 15.7566H11.7154V15.0497H9.57C9.51087 15.0497 9.45417 15.0263 9.41236 14.9845C9.37055 14.9426 9.34706 14.8859 9.34706 14.8268C9.34706 14.7677 9.37055 14.711 9.41236 14.6692C9.45417 14.6274 9.51087 14.6039 9.57 14.6039H11.7154V13.897H9.30075C9.24152 13.897 9.18472 13.8735 9.14284 13.8316C9.10097 13.7897 9.07744 13.7329 9.07744 13.6737C9.07744 13.6145 9.10097 13.5577 9.14284 13.5158C9.18472 13.4739 9.24152 13.4504 9.30075 13.4504H11.7154V12.7442H9.44888C9.41951 12.7443 9.39043 12.7386 9.36329 12.7273C9.33615 12.7161 9.31149 12.6997 9.29073 12.6789C9.26996 12.6581 9.2535 12.6335 9.24229 12.6063C9.23107 12.5792 9.22533 12.5501 9.22537 12.5207C9.22537 12.3985 9.3255 12.2969 9.44888 12.2969H11.7154V11.5911H9.93975C9.88037 11.5911 9.82343 11.5675 9.78145 11.5256C9.73946 11.4836 9.71588 11.4266 9.71588 11.3672C9.71588 11.3079 9.73946 11.2509 9.78145 11.2089C9.82343 11.167 9.88037 11.1434 9.93975 11.1434H11.7154V10.753H12.8183V11.1434H14.5939C14.6533 11.1434 14.7102 11.167 14.7522 11.2089C14.7942 11.2509 14.8178 11.3079 14.8178 11.3672C14.8178 11.4266 14.7942 11.4836 14.7522 11.5256C14.7102 11.5675 14.6533 11.5911 14.5939 11.5911H12.8183V12.2965H15.0915C15.1508 12.2968 15.2076 12.3205 15.2495 12.3624C15.2914 12.4043 15.3151 12.4611 15.3154 12.5204C15.3154 12.5498 15.3097 12.5789 15.2984 12.606C15.2872 12.6332 15.2707 12.6579 15.2499 12.6787C15.2291 12.6994 15.2044 12.7159 15.1772 12.7271C15.15 12.7383 15.1209 12.744 15.0915 12.7439H12.8183V13.45H15.2404C15.2996 13.45 15.3564 13.4735 15.3983 13.5154C15.4402 13.5573 15.4637 13.6141 15.4637 13.6733C15.4637 13.7325 15.4402 13.7893 15.3983 13.8312C15.3564 13.8731 15.2996 13.8966 15.2404 13.8966H12.8183V14.6035H14.964C14.994 14.6023 15.024 14.6071 15.0522 14.6178C15.0803 14.6284 15.106 14.6446 15.1277 14.6655C15.1493 14.6863 15.1666 14.7113 15.1784 14.7389C15.1902 14.7666 15.1963 14.7964 15.1963 14.8264C15.1963 14.8565 15.1902 14.8863 15.1784 14.9139C15.1666 14.9416 15.1493 14.9666 15.1277 14.9874C15.106 15.0082 15.0803 15.0245 15.0522 15.0351C15.024 15.0458 14.994 15.0506 14.964 15.0494L12.8186 15.0497ZM15.6469 6.76562H8.99175C7.78763 6.76562 6.6735 7.408 6.04688 8.36612H18.4946C18.1969 7.87766 17.7786 7.47392 17.2799 7.19365C16.7813 6.91338 16.2189 6.76599 15.6469 6.76562Z" fill="#F36A26"/>
</svg>
