<svg width="24" height="24" viewBox="0 0 24 24" fill="none" xmlns="http://www.w3.org/2000/svg">
<path d="M8.00006 6C8.00006 3.79 9.79006 2 12.0001 2C14.2101 2 16.0001 3.79 16.0001 6C16.0001 8.21 14.2101 10 12.0001 10C9.79006 10 8.00006 8.21 8.00006 6ZM17.0001 22H18.0001C19.1001 22 20.0001 21.1 20.0001 20V15.22C20.0001 14.1 19.3901 13.07 18.3901 12.56C17.9601 12.34 17.5001 12.13 17.0001 11.94V22ZM12.3401 17L15.0001 11.33C14.0701 11.12 13.0701 11 12.0001 11C9.47006 11 7.29007 11.7 5.61007 12.56C5.12212 12.8113 4.71337 13.1929 4.42916 13.6625C4.14496 14.132 3.99643 14.6712 4.00006 15.22V22H6.34007C6.12007 21.55 6.00007 21.04 6.00007 20.5C6.00007 18.57 7.57006 17 9.50006 17H12.3401ZM10.0001 22L11.4101 19H9.50006C8.67006 19 8.00006 19.67 8.00006 20.5C8.00006 21.33 8.67006 22 9.50006 22H10.0001Z" fill="#F36A26"/>
</svg>
