<svg width="24" height="24" viewBox="0 0 24 24" fill="none" xmlns="http://www.w3.org/2000/svg">
<path fill-rule="evenodd" clip-rule="evenodd" d="M3.21416 3.2122C2.82925 3.5967 2.5239 4.05328 2.31557 4.55586C2.10723 5.05844 2 5.59716 2 6.1412C2 6.68525 2.10723 7.22397 2.31557 7.72654C2.5239 8.22912 2.82925 8.68571 3.21416 9.0702L14.9312 20.7862C15.708 21.563 16.7616 21.9994 17.8602 21.9994C18.4041 21.9994 18.9428 21.8923 19.4453 21.6841C19.9479 21.476 20.4045 21.1708 20.7892 20.7862C21.1738 20.4016 21.4789 19.9449 21.6871 19.4424C21.8952 18.9398 22.0024 18.4012 22.0024 17.8572C22.0024 17.3132 21.8952 16.7746 21.6871 16.272C21.4789 15.7695 21.1738 15.3128 20.7892 14.9282L9.07116 3.2122C8.68666 2.8273 8.23008 2.52195 7.7275 2.31361C7.22492 2.10528 6.6862 1.99805 6.14216 1.99805C5.59811 1.99805 5.0594 2.10528 4.55682 2.31361C4.05424 2.52195 3.59765 2.8273 3.21316 3.2122M9.34516 8.2302C9.27275 8.15381 9.18577 8.09269 9.08935 8.05046C8.99293 8.00823 8.88903 7.98575 8.78378 7.98434C8.67853 7.98293 8.57407 8.00262 8.47655 8.04225C8.37904 8.08188 8.29045 8.14064 8.21602 8.21507C8.14159 8.2895 8.08283 8.37809 8.0432 8.4756C8.00357 8.57312 7.98388 8.67758 7.98529 8.78283C7.9867 8.88808 8.00919 8.99198 8.05142 9.0884C8.09364 9.18482 8.15476 9.2718 8.23116 9.3442C8.37901 9.49206 8.57955 9.57513 8.78866 9.57513C8.99776 9.57513 9.1983 9.49206 9.34616 9.3442C9.49402 9.19635 9.57708 8.99581 9.57708 8.7867C9.57708 8.5776 9.49402 8.37706 9.34616 8.2292M12.1302 9.1572C12.057 9.08406 11.9702 9.02603 11.8746 8.98645C11.779 8.94686 11.6766 8.92649 11.5732 8.92649C11.4697 8.92649 11.3673 8.94686 11.2717 8.98645C11.1761 9.02603 11.0893 9.08406 11.0162 9.1572C10.943 9.23035 10.885 9.31719 10.8454 9.41276C10.8058 9.50833 10.7854 9.61076 10.7854 9.7142C10.7854 9.81765 10.8058 9.92008 10.8454 10.0156C10.885 10.1112 10.943 10.1981 11.0162 10.2712C11.1639 10.4189 11.3642 10.5019 11.5732 10.5019C11.7821 10.5019 11.9824 10.4189 12.1302 10.2712C12.2779 10.1235 12.3609 9.92312 12.3609 9.7142C12.3609 9.50529 12.2779 9.30493 12.1302 9.1572ZM15.8422 12.8692C15.9186 12.9416 15.9797 13.0286 16.0219 13.125C16.0641 13.2214 16.0866 13.3253 16.088 13.4306C16.0894 13.5358 16.0697 13.6403 16.0301 13.7378C15.9905 13.8353 15.9317 13.9239 15.8573 13.9983C15.7829 14.0728 15.6943 14.1315 15.5968 14.1712C15.4992 14.2108 15.3948 14.2305 15.2895 14.2291C15.1843 14.2277 15.0804 14.2052 14.984 14.1629C14.8875 14.1207 14.8006 14.0596 14.7282 13.9832C14.5869 13.8342 14.5094 13.6359 14.5122 13.4306C14.5149 13.2253 14.5977 13.0291 14.7429 12.8839C14.8881 12.7387 15.0842 12.656 15.2895 12.6532C15.4948 12.6505 15.6931 12.728 15.8422 12.8692ZM16.7712 16.7682C16.8443 16.6951 16.9023 16.6082 16.9419 16.5127C16.9815 16.4171 17.0019 16.3146 17.0019 16.2112C17.0019 16.1078 16.9815 16.0053 16.9419 15.9098C16.9023 15.8142 16.8443 15.7273 16.7712 15.6542C16.698 15.5811 16.6112 15.523 16.5156 15.4834C16.42 15.4439 16.3176 15.4235 16.2142 15.4235C16.1107 15.4235 16.0083 15.4439 15.9127 15.4834C15.8171 15.523 15.7303 15.5811 15.6572 15.6542C15.5094 15.8019 15.4264 16.0023 15.4264 16.2112C15.4264 16.4201 15.5094 16.6205 15.6572 16.7682C15.8049 16.9159 16.0052 16.9989 16.2142 16.9989C16.4231 16.9989 16.6234 16.9159 16.7712 16.7682ZM13.0582 13.0552C13.2059 12.9076 13.2889 12.7074 13.289 12.4986C13.2891 12.2897 13.2062 12.0894 13.0587 11.9417C12.9111 11.794 12.7108 11.7109 12.502 11.7108C12.2932 11.7107 12.0929 11.7936 11.9452 11.9412C11.872 12.0143 11.814 12.1011 11.7744 12.1966C11.7348 12.2921 11.7143 12.3945 11.7143 12.4979C11.7142 12.7067 11.7971 12.907 11.9447 13.0547C12.0922 13.2024 12.2925 13.2855 12.5013 13.2856C12.7101 13.2857 12.9104 13.2028 13.0582 13.0552ZM13.9862 14.7252C14.0626 14.7976 14.1237 14.8846 14.1659 14.981C14.2081 15.0774 14.2306 15.1813 14.232 15.2866C14.2334 15.3918 14.2137 15.4963 14.1741 15.5938C14.1345 15.6913 14.0757 15.7799 14.0013 15.8543C13.9269 15.9288 13.8383 15.9875 13.7408 16.0272C13.6432 16.0668 13.5388 16.0865 13.4335 16.0851C13.3283 16.0837 13.2244 16.0612 13.128 16.0189C13.0315 15.9767 12.9446 15.9156 12.8722 15.8392C12.7342 15.6896 12.6595 15.4924 12.6637 15.2889C12.6679 15.0854 12.7506 14.8915 12.8946 14.7477C13.0386 14.6038 13.2326 14.5213 13.4361 14.5173C13.6395 14.5133 13.8366 14.5881 13.9862 14.7262M9.16116 11.0152C9.30888 10.8675 9.50924 10.7845 9.71816 10.7845C9.92707 10.7845 10.1274 10.8675 10.2752 11.0152C10.4229 11.1629 10.5059 11.3633 10.5059 11.5722C10.5059 11.7811 10.4229 11.9815 10.2752 12.1292C10.1274 12.2769 9.92707 12.3599 9.71816 12.3599C9.50924 12.3599 9.30888 12.2769 9.16116 12.1292C9.01343 11.9815 8.93044 11.7811 8.93044 11.5722C8.93044 11.3633 9.01343 11.1629 9.16116 11.0152Z" fill="#F36A26"/>
<path d="M5.08123 13.0602L3.21323 14.9302C2.43641 15.7071 2 16.7606 2 17.8592C2 18.9578 2.43641 20.0114 3.21323 20.7882C3.99005 21.5651 5.04364 22.0015 6.14223 22.0015C7.24082 22.0015 8.29441 21.5651 9.07123 20.7882L10.9392 18.9202L5.08123 13.0602ZM18.9192 10.9402L20.7872 9.07123C21.5641 8.29441 22.0005 7.24082 22.0005 6.14223C22.0005 5.04364 21.5641 3.99005 20.7872 3.21323C20.0104 2.43641 18.9568 2 17.8582 2C16.7596 2 15.7061 2.43641 14.9292 3.21323L13.0602 5.08123L18.9192 10.9402Z" fill="#F36A26"/>
</svg>
